<svg xmlns="http://www.w3.org/2000/svg" version="1.0" viewBox="0 0 21.94 25.729" preserveAspectRatio="xMinYMin meet"><path d="M8.031 14.927c.24.323 1.243 1.37 2.939 1.37 1.63 0 2.612-.948 2.9-1.321-.11-.364-.123-.887.127-1.646h-.009c1.637-1.686 2.888-4.399 2.888-7.07 0-4.107-2.731-6.26-5.905-6.26-3.176 0-5.892 2.152-5.892 6.26 0 2.682 1.244 5.406 2.891 7.088.267.699.218 1.208.061 1.579z"/><path d="M14.949 15.889s-.999 4.635-2.31 7.28c-.465-2.009-1.339-3.86-1.339-3.86s1.119-.462 1.119-1.215c0-.928-1.449-1.389-1.449-1.389s-1.453.326-1.453 1.389c0 .721 1.123 1.215 1.123 1.215s-.876 1.86-1.34 3.858c-1.319-2.657-2.33-7.323-2.33-7.323l.007-.007C3.709 17.057 0 19.191 0 21.301v.811c0 2.947 5.714 3.617 11.002 3.617 5.296 0 10.938-.67 10.938-3.617v-.811c0-2.141-3.615-4.228-6.991-5.412z"/></svg>