<svg xmlns="http://www.w3.org/2000/svg" viewBox="0 0 545 402"><path fill="inherit" d="M509 229c0-7-5-10-16-10H183c-8 0-16 2-25 6s-15 9-20 15L54 344c-4 4-5 8-5 11 0 7 5 10 15 10h311q10.5 0 24-6c9-4 16-9 20-15l84-104c4-4 6-8 6-11m-326-47h219v-45c0-8-3-14-8-20-5-5-12-8-19-8H210c-8 0-14-2-19-8-6-5-8-12-8-19V64c0-8-3-15-8-20-6-5-12-8-20-8H64c-8 0-14 3-20 8-5 5-8 12-8 20v243l73-90c9-10 20-18 34-25 13-6 27-10 40-10m362 47c0 12-4 23-13 34l-84 104c-8 10-20 18-33 25-14 7-28 10-40 10H64c-18 0-33-6-45-19-13-13-19-28-19-45V64c0-18 6-33 19-46Q37 0 64 0h91q27 0 45 18c13 13 19 28 19 46v9h156c17 0 32 6 45 19 12 12 19 27 19 45v45h54c11 0 20 3 29 7 8 5 15 12 19 21 3 6 4 12 4 19"/></svg>