<svg viewBox="0 0 150 150" xmlns="http://www.w3.org/2000/svg"><path d="M41.884 46.931c4.258 0 8.052.704 11.382 2.112 3.33 1.408 6.146 3.348 8.446 5.82 2.3 2.472 4.052 5.425 5.254 8.858 1.201 3.434 1.802 7.176 1.802 11.227 0 4.12-.6 7.897-1.802 11.331-1.202 3.433-2.953 6.386-5.254 8.858-2.3 2.472-5.115 4.412-8.446 5.82-3.33 1.408-7.124 2.112-11.382 2.112-4.257 0-8.051-.704-11.382-2.112-3.33-1.408-6.146-3.348-8.446-5.82-2.3-2.472-4.052-5.425-5.253-8.858C15.6 82.845 15 79.069 15 74.949c0-4.052.6-7.794 1.803-11.228 1.201-3.433 2.952-6.386 5.253-8.858 2.3-2.472 5.116-4.412 8.446-5.82 3.33-1.408 7.125-2.112 11.382-2.112zm0 9.27c-2.61 0-4.875.55-6.798 1.649-1.923 1.098-3.502 2.523-4.738 4.274-1.236 1.752-2.146 3.76-2.73 6.026a27.16 27.16 0 00-.876 6.798c0 2.335.292 4.619.876 6.85.584 2.232 1.494 4.24 2.73 6.026a14.326 14.326 0 004.738 4.326c1.923 1.099 4.189 1.648 6.798 1.648 2.61 0 4.876-.55 6.798-1.648a14.326 14.326 0 004.739-4.326c1.236-1.785 2.146-3.794 2.73-6.026a26.96 26.96 0 00.875-6.85 27.16 27.16 0 00-.876-6.798c-.583-2.266-1.493-4.274-2.73-6.026-1.235-1.75-2.815-3.176-4.738-4.274-1.922-1.099-4.188-1.648-6.798-1.648zm66.232-9.27c4.257 0 8.051.704 11.382 2.112 3.33 1.408 6.146 3.348 8.446 5.82 2.3 2.472 4.052 5.425 5.253 8.858C134.4 67.155 135 70.897 135 74.948c0 4.12-.6 7.897-1.803 11.331-1.201 3.433-2.952 6.386-5.253 8.858-2.3 2.472-5.116 4.412-8.446 5.82-3.33 1.408-7.125 2.112-11.382 2.112-4.258 0-8.052-.704-11.382-2.112-3.33-1.408-6.146-3.348-8.446-5.82-2.3-2.472-4.052-5.425-5.254-8.858-1.201-3.434-1.802-7.21-1.802-11.33 0-4.052.6-7.794 1.802-11.228 1.202-3.433 2.953-6.386 5.254-8.858 2.3-2.472 5.115-4.412 8.446-5.82 3.33-1.408 7.124-2.112 11.382-2.112zm0 9.27c-2.61 0-4.876.55-6.798 1.649-1.923 1.098-3.503 2.523-4.739 4.274-1.236 1.752-2.146 3.76-2.73 6.026a27.16 27.16 0 00-.875 6.798c0 2.335.292 4.619.876 6.85.583 2.232 1.493 4.24 2.73 6.026a14.326 14.326 0 004.738 4.326c1.922 1.099 4.188 1.648 6.798 1.648 2.61 0 4.875-.55 6.798-1.648a14.326 14.326 0 004.738-4.326c1.236-1.785 2.146-3.794 2.73-6.026a26.96 26.96 0 00.876-6.85 27.16 27.16 0 00-.876-6.798c-.584-2.266-1.494-4.274-2.73-6.026-1.236-1.75-2.815-3.176-4.738-4.274-1.923-1.099-4.189-1.648-6.798-1.648z" stroke="#000" fill="#FFF"/></svg>