<svg xmlns="http://www.w3.org/2000/svg" viewBox="0 0 384 384"><path fill="#43536D" d="M56 272c-31 0-56 25-56 56s25 56 56 56 56-25 56-56-25-56-56-56zm0 96c-22 0-40-18-40-40s18-40 40-40 40 18 40 40-18 40-40 40zM0 128v80c48 0 94 14 128 48s48 80 48 128h80c0-140-116-256-256-256zm240 240h-48c-4-50-21-92-53-123-31-32-73-49-123-53v-47c26 1 52 8 77 18 28 12 54 30 76 52s40 48 52 76c11 25 17 51 19 77zM0 0v80c171 0 304 133 304 304h80C384 172 212 0 0 0zm227 157C171 100 97 68 16 64V16c190 9 344 162 352 352h-48c-4-81-37-155-93-211z"/></svg>