<svg xmlns="http://www.w3.org/2000/svg" viewBox="0 0 820 820"><path d="M34.709 39.914q7.77 0 13.848 2.569t10.276 7.081q4.199 4.512 6.392 10.778 2.193 6.265 2.193 13.66 0 7.52-2.193 13.785t-6.392 10.778-10.276 7.08q-6.078 2.57-13.848 2.57t-13.848-2.57q-6.078-2.568-10.276-7.08-4.199-4.511-6.392-10.778Q2 81.521 2 74.002q0-7.395 2.193-13.66t6.392-10.778q4.198-4.512 10.276-7.081 6.078-2.568 13.848-2.569m0 11.279q-4.763 0-8.271 2.005-3.51 2.006-5.765 5.201-2.256 3.196-3.321 7.331a33 33 0 0 0-1.065 8.272q0 4.26 1.065 8.334t3.321 7.331 5.765 5.263q3.508 2.006 8.271 2.006t8.271-2.006q3.51-2.004 5.765-5.263t3.321-7.331a32.8 32.8 0 0 0 1.065-8.334q0-4.135-1.065-8.272-1.065-4.135-3.321-7.331-2.255-3.195-5.765-5.201-3.508-2.005-8.271-2.005" style="fill:#fff" transform="translate(0 5.115)scale(5.46667)"/><path d="M189.743 212.378c29.913 0 56.558 5.018 79.96 14.908 23.633 9.993 43.597 23.785 59.926 41.328 16.302 17.52 28.739 38.425 37.256 62.757 8.38 23.944 12.6 50.036 12.6 78.288 0 28.717-4.225 55.039-12.6 78.972-8.517 24.326-20.954 45.236-37.256 62.752-16.329 17.548-36.293 31.34-59.925 41.333-23.403 9.89-50.048 14.908-79.961 14.908-29.914 0-56.559-5.019-79.961-14.908-23.633-9.993-43.597-23.785-59.926-41.333-16.302-17.516-28.738-38.426-37.255-62.752C4.226 464.698 0 438.376 0 409.659c0-28.252 4.226-54.344 12.6-78.288 8.518-24.332 20.954-45.237 37.256-62.757 16.329-17.543 36.293-31.335 59.926-41.328 23.402-9.89 50.047-14.908 79.96-14.908m0 21.867c-26.721 0-50.545 4.346-71.444 13.18-20.67 8.736-38.158 20.746-52.431 36.085-14.3 15.367-25.158 33.74-32.625 55.083-7.604 21.73-11.376 45.422-11.376 71.066 0 26.087 3.766 50.01 11.376 71.745 7.467 21.347 18.324 39.715 32.625 55.082 14.273 15.34 31.761 27.35 52.43 36.085 20.9 8.835 44.724 13.186 71.445 13.186s50.544-4.351 71.444-13.186c20.669-8.735 38.157-20.746 52.43-36.085 14.301-15.367 25.158-33.735 32.625-55.082 7.61-21.736 11.377-45.658 11.377-71.745 0-25.644-3.772-49.336-11.377-71.066-7.467-21.342-18.324-39.716-32.625-55.083-14.273-15.34-31.761-27.35-52.43-36.085-20.9-8.834-44.723-13.18-71.444-13.18m0 39.792c19.45 0 36.31 4.214 50.643 12.404 14.213 8.123 25.88 18.668 35.02 31.619 8.96 12.688 15.58 27.23 19.81 43.657 4.117 15.979 6.167 31.958 6.167 47.942 0 16.471-2.061 32.576-6.177 48.326-4.22 16.126-10.813 30.63-19.746 43.53-9.151 13.225-20.839 23.912-35.074 32.046-14.334 8.19-31.193 12.404-50.643 12.404s-36.31-4.215-50.644-12.404c-14.235-8.134-25.923-18.821-35.074-32.045-8.932-12.902-15.525-27.405-19.745-43.531-4.117-15.75-6.178-31.855-6.178-48.326 0-15.984 2.05-31.963 6.167-47.942 4.23-16.428 10.851-30.97 19.81-43.657 9.141-12.95 20.807-23.496 35.02-31.62 14.334-8.189 31.193-12.403 50.644-12.403m0 21.866c-15.263 0-28.547 3.094-39.792 9.523-11.36 6.49-20.703 14.897-28.006 25.245-7.484 10.6-12.967 22.774-16.498 36.496q-5.478 21.246-5.478 42.492-.002 21.876 5.467 42.793c3.548 13.558 9.058 25.77 16.564 36.622 7.292 10.528 16.613 19.024 27.95 25.502 11.246 6.428 24.53 9.523 39.793 9.523s28.547-3.095 39.792-9.523c11.337-6.478 20.658-14.974 27.95-25.502 7.512-10.852 13.017-23.064 16.565-36.622q5.467-20.917 5.466-42.793 0-21.246-5.477-42.492c-3.532-13.722-9.015-25.896-16.499-36.496-7.303-10.348-16.646-18.756-28.005-25.245-11.245-6.429-24.53-9.523-39.792-9.523"/><path d="M115.291 39.914q7.77 0 13.848 2.569t10.276 7.081q4.199 4.512 6.392 10.778Q148 66.607 148 74.002q0 7.52-2.193 13.785t-6.392 10.778q-4.197 4.512-10.276 7.08-6.078 2.57-13.848 2.57t-13.848-2.57q-6.079-2.568-10.276-7.08-4.199-4.511-6.392-10.778-2.193-6.266-2.193-13.785 0-7.395 2.193-13.66t6.392-10.778q4.197-4.512 10.276-7.081 6.078-2.568 13.848-2.569m0 11.279q-4.762 0-8.271 2.005t-5.765 5.201-3.321 7.331a33 33 0 0 0-1.065 8.272q0 4.26 1.065 8.334t3.321 7.331q2.255 3.258 5.765 5.263t8.271 2.006q4.762 0 8.271-2.006 3.51-2.004 5.765-5.263t3.321-7.331a32.8 32.8 0 0 0 1.065-8.334q0-4.135-1.065-8.272-1.065-4.135-3.321-7.331-2.255-3.195-5.765-5.201t-8.271-2.005" style="fill:#fff" transform="translate(0 5.115)scale(5.46667)"/><path d="M630.258 212.378c29.913 0 56.558 5.018 79.96 14.908 23.633 9.993 43.598 23.785 59.926 41.328 16.302 17.52 28.739 38.425 37.256 62.757 8.375 23.944 12.6 50.036 12.6 78.288 0 28.717-4.225 55.039-12.6 78.972-8.517 24.326-20.954 45.236-37.256 62.752-16.328 17.548-36.293 31.34-59.925 41.333-23.403 9.89-50.048 14.908-79.961 14.908-29.914 0-56.558-5.019-79.961-14.908-23.633-9.993-43.597-23.785-59.926-41.333-16.301-17.516-28.738-38.426-37.255-62.752-8.375-23.933-12.6-50.255-12.6-78.972 0-28.252 4.22-54.344 12.6-78.288 8.517-24.332 20.954-45.237 37.255-62.757 16.33-17.543 36.293-31.335 59.926-41.328 23.403-9.89 50.047-14.908 79.96-14.908m0 21.867c-26.721 0-50.545 4.346-71.444 13.18-20.67 8.736-38.157 20.746-52.43 36.085-14.302 15.367-25.159 33.74-32.626 55.083-7.604 21.73-11.376 45.422-11.376 71.066 0 26.087 3.766 50.01 11.376 71.745 7.467 21.347 18.324 39.715 32.625 55.082 14.274 15.34 31.761 27.35 52.43 36.085 20.9 8.835 44.724 13.186 71.445 13.186s50.545-4.351 71.444-13.186c20.67-8.735 38.157-20.746 52.43-36.085 14.301-15.367 25.158-33.735 32.626-55.082 7.61-21.736 11.376-45.658 11.376-71.745 0-25.644-3.772-49.336-11.376-71.066-7.468-21.342-18.325-39.716-32.625-55.083-14.274-15.34-31.762-27.35-52.431-36.085-20.9-8.834-44.723-13.18-71.444-13.18m0 39.792c19.45 0 36.31 4.214 50.643 12.404 14.213 8.123 25.88 18.668 35.02 31.619 8.96 12.688 15.58 27.23 19.81 43.657 4.117 15.979 6.167 31.958 6.167 47.942 0 16.471-2.06 32.576-6.177 48.326-4.22 16.126-10.813 30.63-19.746 43.53-9.151 13.225-20.839 23.912-35.074 32.046-14.334 8.19-31.193 12.404-50.643 12.404s-36.31-4.215-50.643-12.404c-14.236-8.134-25.923-18.821-35.075-32.045-8.932-12.902-15.525-27.405-19.745-43.531-4.117-15.75-6.177-31.855-6.177-48.326 0-15.984 2.05-31.963 6.166-47.942 4.231-16.428 10.851-30.97 19.811-43.657 9.14-12.95 20.806-23.496 35.02-31.62 14.333-8.189 31.192-12.403 50.643-12.403m0 21.866c-15.263 0-28.547 3.094-39.792 9.523-11.36 6.49-20.702 14.897-28.006 25.245-7.484 10.6-12.967 22.774-16.498 36.496q-5.478 21.246-5.478 42.492-.002 21.876 5.467 42.793c3.548 13.558 9.053 25.77 16.564 36.622 7.292 10.528 16.613 19.024 27.951 25.502 11.245 6.428 24.529 9.523 39.792 9.523s28.547-3.095 39.792-9.523c11.338-6.478 20.658-14.974 27.95-25.502 7.507-10.852 13.017-23.064 16.565-36.622q5.468-20.917 5.467-42.793 0-21.246-5.478-42.492c-3.532-13.722-9.015-25.896-16.499-36.496-7.303-10.348-16.646-18.756-28.005-25.245-11.245-6.429-24.53-9.523-39.792-9.523"/></svg>