<svg xmlns="http://www.w3.org/2000/svg" viewBox="0 0 1024 1024"><path d="M34.709 39.914q7.77 0 13.848 2.569t10.276 7.081q4.199 4.512 6.392 10.778 2.193 6.265 2.193 13.66 0 7.52-2.193 13.785t-6.392 10.778-10.276 7.08q-6.078 2.57-13.848 2.57t-13.848-2.57q-6.078-2.568-10.276-7.08-4.199-4.511-6.392-10.778Q2 81.521 2 74.002q0-7.395 2.193-13.66t6.392-10.778q4.198-4.512 10.276-7.081 6.078-2.568 13.848-2.569m0 11.279q-4.763 0-8.271 2.005-3.51 2.006-5.765 5.201-2.256 3.196-3.321 7.331a33 33 0 0 0-1.065 8.272q0 4.26 1.065 8.334t3.321 7.331 5.765 5.263q3.508 2.006 8.271 2.006t8.271-2.006q3.51-2.004 5.765-5.263t3.321-7.331a32.8 32.8 0 0 0 1.065-8.334q0-4.135-1.065-8.272-1.065-4.135-3.321-7.331-2.255-3.195-5.765-5.201-3.508-2.005-8.271-2.005" style="fill:#fff;fill-rule:nonzero" transform="translate(102 107.114)scale(5.46667)"/><path d="M34.709 37.914c5.472 0 10.346.918 14.627 2.727 4.323 1.828 7.975 4.351 10.962 7.56 2.982 3.205 5.257 7.029 6.815 11.48 1.533 4.38 2.305 9.153 2.305 14.321 0 5.253-.773 10.068-2.305 14.446-1.558 4.45-3.833 8.275-6.815 11.479-2.987 3.21-6.639 5.733-10.962 7.561-4.281 1.809-9.155 2.727-14.627 2.727s-10.346-.918-14.627-2.727c-4.323-1.828-7.975-4.351-10.962-7.561-2.982-3.204-5.257-7.029-6.815-11.479C.773 84.07 0 79.255 0 74.002c0-5.168.773-9.941 2.305-14.321 1.558-4.451 3.833-8.275 6.815-11.48 2.987-3.209 6.639-5.732 10.962-7.56 4.281-1.809 9.155-2.727 14.627-2.727m0 4c-4.888 0-9.246.795-13.069 2.411-3.781 1.598-6.98 3.795-9.591 6.601-2.616 2.811-4.602 6.172-5.968 10.076C4.69 64.977 4 69.311 4 74.002c0 4.772.689 9.148 2.081 13.124 1.366 3.905 3.352 7.265 5.968 10.076 2.611 2.806 5.81 5.003 9.591 6.601 3.823 1.616 8.181 2.412 13.069 2.412s9.246-.796 13.069-2.412c3.781-1.598 6.98-3.795 9.591-6.601 2.616-2.811 4.602-6.171 5.968-10.076 1.392-3.976 2.081-8.352 2.081-13.124 0-4.691-.69-9.025-2.081-13-1.366-3.904-3.352-7.265-5.968-10.076-2.611-2.806-5.81-5.003-9.591-6.601-3.823-1.616-8.181-2.411-13.069-2.411m0 7.279c3.558 0 6.642.771 9.264 2.269q3.899 2.23 6.406 5.784c1.639 2.321 2.85 4.981 3.624 7.986a35 35 0 0 1 1.128 8.77 34.8 34.8 0 0 1-1.13 8.84q-1.16 4.424-3.612 7.963-2.51 3.63-6.416 5.862c-2.622 1.498-5.706 2.269-9.264 2.269s-6.642-.771-9.264-2.269q-3.906-2.233-6.416-5.862-2.452-3.539-3.612-7.963a34.8 34.8 0 0 1-1.13-8.84q0-4.386 1.128-8.77c.774-3.005 1.985-5.665 3.624-7.986q2.507-3.554 6.406-5.784c2.622-1.498 5.706-2.269 9.264-2.269m0 4c-2.792 0-5.222.566-7.279 1.742q-3.118 1.78-5.123 4.618c-1.369 1.939-2.372 4.166-3.018 6.676a31 31 0 0 0-1.002 7.773q0 4.002 1 7.828.972 3.72 3.03 6.699 2.002 2.888 5.113 4.665c2.057 1.176 4.487 1.742 7.279 1.742s5.222-.566 7.279-1.742q3.111-1.777 5.113-4.665c1.374-1.985 2.381-4.219 3.03-6.699q1-3.826 1-7.828 0-3.886-1.002-7.773c-.646-2.51-1.649-4.737-3.018-6.676q-2.005-2.839-5.123-4.618c-2.057-1.176-4.487-1.742-7.279-1.742" style="fill-rule:nonzero" transform="translate(102 107.114)scale(5.46667)"/><path d="M115.291 39.914q7.77 0 13.848 2.569t10.276 7.081q4.199 4.512 6.392 10.778Q148 66.607 148 74.002q0 7.52-2.193 13.785t-6.392 10.778q-4.197 4.512-10.276 7.08-6.078 2.57-13.848 2.57t-13.848-2.57q-6.079-2.568-10.276-7.08-4.199-4.511-6.392-10.778-2.193-6.266-2.193-13.785 0-7.395 2.193-13.66t6.392-10.778q4.197-4.512 10.276-7.081 6.078-2.568 13.848-2.569m0 11.279q-4.762 0-8.271 2.005t-5.765 5.201-3.321 7.331a33 33 0 0 0-1.065 8.272q0 4.26 1.065 8.334t3.321 7.331q2.255 3.258 5.765 5.263t8.271 2.006q4.762 0 8.271-2.006 3.51-2.004 5.765-5.263t3.321-7.331a32.8 32.8 0 0 0 1.065-8.334q0-4.135-1.065-8.272-1.065-4.135-3.321-7.331-2.255-3.195-5.765-5.201t-8.271-2.005" style="fill:#fff;fill-rule:nonzero" transform="translate(102 107.114)scale(5.46667)"/><path d="M115.291 37.914c5.472 0 10.346.918 14.627 2.727 4.323 1.828 7.975 4.351 10.962 7.56 2.982 3.205 5.257 7.029 6.815 11.48 1.532 4.38 2.305 9.153 2.305 14.321 0 5.253-.773 10.068-2.305 14.446-1.558 4.45-3.833 8.275-6.815 11.479-2.987 3.21-6.639 5.733-10.962 7.561-4.281 1.809-9.155 2.727-14.627 2.727s-10.346-.918-14.627-2.727c-4.323-1.828-7.975-4.351-10.962-7.561-2.982-3.204-5.257-7.029-6.815-11.479-1.532-4.378-2.305-9.193-2.305-14.446 0-5.168.772-9.941 2.305-14.321 1.558-4.451 3.833-8.275 6.815-11.48 2.987-3.209 6.639-5.732 10.962-7.56 4.281-1.809 9.155-2.727 14.627-2.727m0 4c-4.888 0-9.246.795-13.069 2.411-3.781 1.598-6.98 3.795-9.591 6.601-2.616 2.811-4.602 6.172-5.968 10.076-1.391 3.975-2.081 8.309-2.081 13 0 4.772.689 9.148 2.081 13.124 1.366 3.905 3.352 7.265 5.968 10.076 2.611 2.806 5.81 5.003 9.591 6.601 3.823 1.616 8.181 2.412 13.069 2.412s9.246-.796 13.069-2.412c3.781-1.598 6.98-3.795 9.591-6.601 2.616-2.811 4.602-6.171 5.968-10.076C145.311 83.15 146 78.774 146 74.002c0-4.691-.69-9.025-2.081-13-1.366-3.904-3.352-7.265-5.968-10.076-2.611-2.806-5.81-5.003-9.591-6.601-3.823-1.616-8.181-2.411-13.069-2.411m0 7.279c3.558 0 6.642.771 9.264 2.269q3.899 2.23 6.406 5.784c1.639 2.321 2.85 4.981 3.624 7.986a35 35 0 0 1 1.128 8.77 34.8 34.8 0 0 1-1.13 8.84q-1.16 4.424-3.612 7.963-2.51 3.63-6.416 5.862c-2.622 1.498-5.706 2.269-9.264 2.269s-6.642-.771-9.264-2.269q-3.905-2.233-6.416-5.862-2.453-3.539-3.612-7.963a34.8 34.8 0 0 1-1.13-8.84q0-4.386 1.128-8.77c.774-3.005 1.985-5.665 3.624-7.986q2.507-3.554 6.406-5.784c2.622-1.498 5.706-2.269 9.264-2.269m0 4c-2.792 0-5.222.566-7.279 1.742q-3.118 1.78-5.123 4.618c-1.369 1.939-2.372 4.166-3.018 6.676a31 31 0 0 0-1.002 7.773q0 4.002 1 7.828c.649 2.48 1.656 4.714 3.03 6.699q2.002 2.888 5.113 4.665c2.057 1.176 4.487 1.742 7.279 1.742s5.222-.566 7.279-1.742q3.111-1.777 5.113-4.665 2.058-2.978 3.03-6.699 1-3.826 1-7.828 0-3.886-1.002-7.773c-.646-2.51-1.649-4.737-3.018-6.676q-2.005-2.839-5.123-4.618c-2.057-1.176-4.487-1.742-7.279-1.742" style="fill-rule:nonzero" transform="translate(102 107.114)scale(5.46667)"/></svg>