<svg xmlns="http://www.w3.org/2000/svg" xml:space="preserve" preserveAspectRatio="xMinYMin meet" viewBox="0 0 265.257 265.257"><path d="M247.757 27.677H17.5c-9.649 0-17.5 7.851-17.5 17.5V220.08c0 9.65 7.851 17.5 17.5 17.5h230.257c9.649 0 17.5-7.85 17.5-17.5V45.177c0-9.649-7.85-17.5-17.5-17.5m-230.257 15h230.257c1.355 0 2.5 1.145 2.5 2.5v116.474l-40.108-51.474c-2.976-3.819-7.332-6.108-11.952-6.278-4.619-.173-9.132 1.791-12.382 5.382l-52.039 57.512c-1.253 1.384-4.033 1.766-5.614.772l-42.788-26.946c-7.332-4.619-18.063-4.143-24.958 1.105L15 176.288V45.177c0-1.355 1.145-2.5 2.5-2.5M247.757 222.58H17.5c-1.355 0-2.5-1.145-2.5-2.5v-24.942l54.501-41.478c1.893-1.44 5.87-1.616 7.881-.349l42.788 26.946c7.734 4.871 18.596 3.377 24.729-3.4l52.039-57.512c.312-.345.535-.45.708-.457.131.005.385.141.671.508l51.94 66.658v34.025c0 1.356-1.145 2.501-2.5 2.501" style="fill:#000002"/><path d="M110.843 129.224c14.649 0 26.566-11.917 26.566-26.566s-11.918-26.566-26.566-26.566-26.566 11.918-26.566 26.566 11.917 26.566 26.566 26.566m0-38.133c6.378 0 11.566 5.188 11.566 11.566s-5.188 11.566-11.566 11.566-11.566-5.188-11.566-11.566c0-6.377 5.188-11.566 11.566-11.566" style="fill:#000002"/></svg>