<svg width="342" height="68" xmlns="http://www.w3.org/2000/svg"><path d="M26.512 67.344c3.968 0 7.504-.656 10.608-1.968 3.104-1.312 5.728-3.12 7.872-5.424 2.144-2.304 3.776-5.056 4.896-8.256s1.68-6.72 1.68-10.56c0-3.776-.56-7.264-1.68-10.464-1.12-3.2-2.752-5.952-4.896-8.256-2.144-2.304-4.768-4.112-7.872-5.424-3.104-1.312-6.64-1.968-10.608-1.968-3.968 0-7.504.656-10.608 1.968-3.104 1.312-5.728 3.12-7.872 5.424-2.144 2.304-3.776 5.056-4.896 8.256s-1.68 6.688-1.68 10.464c0 3.84.56 7.36 1.68 10.56 1.12 3.2 2.752 5.952 4.896 8.256 2.144 2.304 4.768 4.112 7.872 5.424 3.104 1.312 6.64 1.968 10.608 1.968zm0-8.64c-2.432 0-4.544-.512-6.336-1.536a13.352 13.352 0 01-4.416-4.032c-1.152-1.664-2-3.536-2.544-5.616a25.126 25.126 0 01-.816-6.384c0-2.112.272-4.224.816-6.336.544-2.112 1.392-3.984 2.544-5.616 1.152-1.632 2.624-2.96 4.416-3.984 1.792-1.024 3.904-1.536 6.336-1.536 2.432 0 4.544.512 6.336 1.536 1.792 1.024 3.264 2.352 4.416 3.984 1.152 1.632 2 3.504 2.544 5.616.544 2.112.816 4.224.816 6.336 0 2.176-.272 4.304-.816 6.384-.544 2.08-1.392 3.952-2.544 5.616a13.352 13.352 0 01-4.416 4.032c-1.792 1.024-3.904 1.536-6.336 1.536zm61.728 8.64c3.968 0 7.504-.656 10.608-1.968 3.104-1.312 5.728-3.12 7.872-5.424 2.144-2.304 3.776-5.056 4.896-8.256s1.68-6.72 1.68-10.56c0-3.776-.56-7.264-1.68-10.464-1.12-3.2-2.752-5.952-4.896-8.256-2.144-2.304-4.768-4.112-7.872-5.424-3.104-1.312-6.64-1.968-10.608-1.968-3.968 0-7.504.656-10.608 1.968-3.104 1.312-5.728 3.12-7.872 5.424-2.144 2.304-3.776 5.056-4.896 8.256s-1.68 6.688-1.68 10.464c0 3.84.56 7.36 1.68 10.56 1.12 3.2 2.752 5.952 4.896 8.256 2.144 2.304 4.768 4.112 7.872 5.424 3.104 1.312 6.64 1.968 10.608 1.968zm0-8.64c-2.432 0-4.544-.512-6.336-1.536a13.352 13.352 0 01-4.416-4.032c-1.152-1.664-2-3.536-2.544-5.616a25.126 25.126 0 01-.816-6.384c0-2.112.272-4.224.816-6.336.544-2.112 1.392-3.984 2.544-5.616 1.152-1.632 2.624-2.96 4.416-3.984 1.792-1.024 3.904-1.536 6.336-1.536 2.432 0 4.544.512 6.336 1.536 1.792 1.024 3.264 2.352 4.416 3.984 1.152 1.632 2 3.504 2.544 5.616.544 2.112.816 4.224.816 6.336 0 2.176-.272 4.304-.816 6.384-.544 2.08-1.392 3.952-2.544 5.616a13.352 13.352 0 01-4.416 4.032c-1.792 1.024-3.904 1.536-6.336 1.536zm55.968 7.776c1.216 0 2.4-.064 3.552-.192 1.152-.128 2.336-.256 3.552-.384h0v-8.448c-.768.192-1.536.304-2.304.336-.768.032-1.536.048-2.304.048-1.216 0-2.176-.144-2.88-.432-.704-.288-1.232-.72-1.584-1.296-.352-.576-.576-1.28-.672-2.112-.096-.832-.144-1.824-.144-2.976h0V24.528h9.888v-8.16h-9.888V1.488H130.48v14.88h-8.256v8.16h8.256v29.28c.064 2.048.272 3.872.624 5.472.352 1.6 1.024 2.928 2.016 3.984s2.368 1.856 4.128 2.4c1.76.544 4.08.816 6.96.816zm39.072.864c2.56 0 5.152-.288 7.776-.864 2.624-.576 5.008-1.504 7.152-2.784 2.144-1.28 3.888-2.944 5.232-4.992 1.344-2.048 2.016-4.544 2.016-7.488 0-2.432-.464-4.48-1.392-6.144a12.594 12.594 0 00-3.648-4.128c-1.504-1.088-3.216-1.952-5.136-2.592a60.981 60.981 0 00-5.856-1.632 338.863 338.863 0 00-5.952-1.248c-1.92-.384-3.632-.848-5.136-1.392-1.504-.544-2.72-1.232-3.648-2.064-.928-.832-1.392-1.92-1.392-3.264 0-1.088.32-1.968.96-2.64a6.261 6.261 0 012.352-1.536c.928-.352 1.92-.592 2.976-.72s1.968-.192 2.736-.192c2.432 0 4.592.448 6.48 1.344 1.888.896 3.088 2.656 3.6 5.28h11.424c-.32-2.752-1.104-5.104-2.352-7.056-1.248-1.952-2.816-3.536-4.704-4.752-1.888-1.216-4-2.096-6.336-2.64-2.336-.544-4.784-.816-7.344-.816-2.24 0-4.592.224-7.056.672-2.464.448-4.704 1.232-6.72 2.352-2.016 1.12-3.68 2.592-4.992 4.416-1.312 1.824-1.968 4.08-1.968 6.768 0 2.496.448 4.592 1.344 6.288.896 1.696 2.096 3.088 3.6 4.176s3.2 1.952 5.088 2.592a54.964 54.964 0 005.904 1.632c1.984.448 3.936.864 5.856 1.248s3.632.848 5.136 1.392c1.504.544 2.736 1.264 3.696 2.16.96.896 1.472 2.048 1.536 3.456.064 1.408-.272 2.544-1.008 3.408-.736.864-1.68 1.52-2.832 1.968a15.249 15.249 0 01-3.696.912c-1.312.16-2.48.24-3.504.24-2.944 0-5.472-.64-7.584-1.92-2.112-1.28-3.328-3.52-3.648-6.72h0-10.944c.064 2.944.656 5.488 1.776 7.632a15.538 15.538 0 004.608 5.376c1.952 1.44 4.256 2.512 6.912 3.216 2.656.704 5.552 1.056 8.688 1.056zm52.32-.864c1.216 0 2.4-.064 3.552-.192 1.152-.128 2.336-.256 3.552-.384h0v-8.448c-.768.192-1.536.304-2.304.336-.768.032-1.536.048-2.304.048-1.216 0-2.176-.144-2.88-.432-.704-.288-1.232-.72-1.584-1.296-.352-.576-.576-1.28-.672-2.112-.096-.832-.144-1.824-.144-2.976h0V24.528h9.888v-8.16h-9.888V1.488h-10.944v14.88h-8.256v8.16h8.256v29.28c.064 2.048.272 3.872.624 5.472.352 1.6 1.024 2.928 2.016 3.984s2.368 1.856 4.128 2.4c1.76.544 4.08.816 6.96.816zm30.72-.48V42.384c0-2.752.352-5.184 1.056-7.296.704-2.112 1.664-3.888 2.88-5.328 1.216-1.44 2.64-2.528 4.272-3.264 1.632-.736 3.376-1.104 5.232-1.104.768 0 1.552.048 2.352.144.8.096 1.584.208 2.352.336h0v-10.56c-.512-.064-1.008-.128-1.488-.192s-1.36-.096-2.64-.096c-1.664 0-3.296.32-4.896.96-1.6.64-3.056 1.488-4.368 2.544a18.253 18.253 0 00-3.36 3.504c-.928 1.28-1.552 2.592-1.872 3.936h0-.192v-9.6h-10.272V66h10.944zm67.584 1.344c.448 0 .992-.032 1.632-.096.64-.064 1.28-.16 1.92-.288.64-.128 1.264-.272 1.872-.432.608-.16 1.104-.304 1.488-.432h0v-7.584a7.174 7.174 0 01-1.536.192h0-1.152c-1.024 0-1.712-.288-2.064-.864-.352-.576-.528-1.536-.528-2.88h0V29.424c0-2.624-.576-4.848-1.728-6.672-1.152-1.824-2.672-3.312-4.56-4.464-1.888-1.152-4.016-1.984-6.384-2.496a33.973 33.973 0 00-7.2-.768c-2.752 0-5.44.256-8.064.768-2.624.512-4.976 1.408-7.056 2.688-2.08 1.28-3.792 2.976-5.136 5.088-1.344 2.112-2.112 4.768-2.304 7.968h10.944c.256-2.688 1.376-4.672 3.36-5.952 1.984-1.28 4.512-1.92 7.584-1.92 1.088 0 2.24.08 3.456.24 1.216.16 2.32.48 3.312.96a6.765 6.765 0 012.496 2.064c.672.896 1.008 2.048 1.008 3.456 0 1.6-.4 2.8-1.2 3.6-.8.8-1.888 1.392-3.264 1.776-1.376.384-2.96.656-4.752.816-1.792.16-3.68.432-5.664.816a71.255 71.255 0 00-6.864 1.104c-2.272.48-4.32 1.264-6.144 2.352-1.824 1.088-3.296 2.592-4.416 4.512-1.12 1.92-1.68 4.416-1.68 7.488 0 2.432.464 4.56 1.392 6.384.928 1.824 2.176 3.328 3.744 4.512 1.568 1.184 3.376 2.08 5.424 2.688 2.048.608 4.192.912 6.432.912 2.944 0 6-.48 9.168-1.44 3.168-.96 5.84-2.496 8.016-4.608.448 2.24 1.408 3.808 2.88 4.704 1.472.896 3.328 1.344 5.568 1.344zm-21.6-8.64c-.96 0-2.032-.096-3.216-.288a11.78 11.78 0 01-3.264-1.008 7.67 7.67 0 01-2.544-1.968c-.704-.832-1.056-1.856-1.056-3.072 0-1.408.24-2.608.72-3.6s1.136-1.792 1.968-2.4c.832-.608 1.792-1.088 2.88-1.44a23.393 23.393 0 013.36-.816 81.533 81.533 0 017.296-1.008c2.432-.224 4.48-.88 6.144-1.968h0v8.16c0 1.728-.416 3.184-1.248 4.368a10.488 10.488 0 01-3.12 2.928 13.09 13.09 0 01-3.984 1.632c-1.408.32-2.72.48-3.936.48z" stroke="#262626" fill="none"/></svg>