<svg xmlns="http://www.w3.org/2000/svg" viewBox="0 0 342 68"><path fill="none" stroke="#262626" d="M26.512 67.344q5.952 0 10.608-1.968t7.872-5.424 4.896-8.256 1.68-10.56q0-5.664-1.68-10.464t-4.896-8.256-7.872-5.424-10.608-1.968-10.608 1.968-7.872 5.424-4.896 8.256-1.68 10.464q0 5.76 1.68 10.56t4.896 8.256 7.872 5.424 10.608 1.968Zm0-8.64q-3.648 0-6.336-1.536a13.35 13.35 0 0 1-4.416-4.032q-1.728-2.496-2.544-5.616a25.1 25.1 0 0 1-.816-6.384q0-3.168.816-6.336t2.544-5.616 4.416-3.984 6.336-1.536 6.336 1.536 4.416 3.984 2.544 5.616.816 6.336q0 3.264-.816 6.384t-2.544 5.616a13.35 13.35 0 0 1-4.416 4.032q-2.688 1.536-6.336 1.536Zm61.728 8.64q5.952 0 10.608-1.968t7.872-5.424 4.896-8.256 1.68-10.56q0-5.664-1.68-10.464t-4.896-8.256-7.872-5.424-10.608-1.968-10.608 1.968-7.872 5.424-4.896 8.256-1.68 10.464q0 5.76 1.68 10.56t4.896 8.256 7.872 5.424 10.608 1.968Zm0-8.64q-3.648 0-6.336-1.536a13.35 13.35 0 0 1-4.416-4.032q-1.728-2.496-2.544-5.616a25.1 25.1 0 0 1-.816-6.384q0-3.168.816-6.336t2.544-5.616 4.416-3.984 6.336-1.536 6.336 1.536 4.416 3.984 2.544 5.616.816 6.336q0 3.264-.816 6.384t-2.544 5.616a13.35 13.35 0 0 1-4.416 4.032q-2.688 1.536-6.336 1.536Zm55.968 7.776q1.824 0 3.552-.192t3.552-.384v-8.448q-1.152.288-2.304.336t-2.304.048q-1.824 0-2.88-.432t-1.584-1.296-.672-2.112-.144-2.976V24.528h9.888v-8.16h-9.888V1.488H130.48v14.88h-8.256v8.16h8.256v29.28q.096 3.072.624 5.472t2.016 3.984 4.128 2.4 6.96.816Zm39.072.864q3.84 0 7.776-.864t7.152-2.784 5.232-4.992 2.016-7.488q0-3.648-1.392-6.144a12.6 12.6 0 0 0-3.648-4.128q-2.256-1.632-5.136-2.592a61 61 0 0 0-5.856-1.632 339 339 0 0 0-5.952-1.248q-2.88-.576-5.136-1.392t-3.648-2.064-1.392-3.264q0-1.632.96-2.64a6.26 6.26 0 0 1 2.352-1.536q1.392-.528 2.976-.72t2.736-.192q3.648 0 6.48 1.344t3.6 5.28h11.424q-.48-4.128-2.352-7.056t-4.704-4.752-6.336-2.64-7.344-.816q-3.36 0-7.056.672t-6.72 2.352-4.992 4.416-1.968 6.768q0 3.744 1.344 6.288t3.6 4.176 5.088 2.592a55 55 0 0 0 5.904 1.632q2.976.672 5.856 1.248t5.136 1.392 3.696 2.16 1.536 3.456-1.008 3.408-2.832 1.968a15.3 15.3 0 0 1-3.696.912q-1.968.24-3.504.24-4.416 0-7.584-1.92t-3.648-6.72h-10.944q.096 4.416 1.776 7.632a15.54 15.54 0 0 0 4.608 5.376q2.928 2.16 6.912 3.216t8.688 1.056Zm52.32-.864q1.824 0 3.552-.192t3.552-.384v-8.448q-1.152.288-2.304.336t-2.304.048q-1.824 0-2.88-.432t-1.584-1.296T232.96 54t-.144-2.976V24.528h9.888v-8.16h-9.888V1.488h-10.944v14.88h-8.256v8.16h8.256v29.28q.096 3.072.624 5.472t2.016 3.984 4.128 2.4 6.96.816Zm30.72-.48V42.384q0-4.128 1.056-7.296t2.88-5.328 4.272-3.264 5.232-1.104q1.152 0 2.352.144t2.352.336v-10.56q-.768-.096-1.488-.192t-2.64-.096q-2.496 0-4.896.96t-4.368 2.544a18.3 18.3 0 0 0-3.36 3.504q-1.392 1.92-1.872 3.936h-.192v-9.6h-10.272V66zm67.584 1.344q.672 0 1.632-.096t1.92-.288 1.872-.432 1.488-.432v-7.584a7.2 7.2 0 0 1-1.536.192h-1.152q-1.536 0-2.064-.864t-.528-2.88V29.424q0-3.936-1.728-6.672t-4.56-4.464-6.384-2.496a34 34 0 0 0-7.2-.768q-4.128 0-8.064.768t-7.056 2.688-5.136 5.088-2.304 7.968h10.944q.384-4.032 3.36-5.952t7.584-1.92q1.632 0 3.456.24t3.312.96a6.77 6.77 0 0 1 2.496 2.064q1.008 1.344 1.008 3.456 0 2.4-1.2 3.6T320.8 35.76t-4.752.816-5.664.816a71 71 0 0 0-6.864 1.104q-3.408.72-6.144 2.352t-4.416 4.512-1.68 7.488q0 3.648 1.392 6.384t3.744 4.512 5.424 2.688 6.432.912q4.416 0 9.168-1.44t8.016-4.608q.672 3.36 2.88 4.704t5.568 1.344Zm-21.6-8.64q-1.44 0-3.216-.288a11.8 11.8 0 0 1-3.264-1.008 7.7 7.7 0 0 1-2.544-1.968q-1.056-1.248-1.056-3.072 0-2.112.72-3.6t1.968-2.4 2.88-1.44a23.4 23.4 0 0 1 3.36-.816 82 82 0 0 1 7.296-1.008q3.648-.336 6.144-1.968v8.16q0 2.592-1.248 4.368a10.5 10.5 0 0 1-3.12 2.928 13.1 13.1 0 0 1-3.984 1.632q-2.112.48-3.936.48Z"/></svg>