<svg width="100" height="100" xmlns="http://www.w3.org/2000/svg" viewBox="0 0 70 100" preserveAspectRatio="xMadYMid meet"><path fill="#505050" d="M35 10c13.457 0 24.371 10.909 24.371 24.371C59.371 47.832 35 82 35 82S10.629 47.832 10.629 34.371C10.629 20.909 21.542 10 35 10zm0-10C16.048 0 .629 15.418.629 34.371c0 4.794 1.409 13.532 13.595 33.982C20.456 78.81 26.6 87.444 26.859 87.807L35 99.221l8.142-11.414c.258-.362 6.402-8.997 12.635-19.454 12.186-20.45 13.595-29.188 13.595-33.982C69.371 15.418 53.952 0 35 0z"/><path fill="#505050" d="M45 34a9.99 9.99 0 01-10 10c-5.527 0-10-4.473-10-10 0-5.531 4.473-10 10-10 5.534 0 10 4.469 10 10z"/></svg>