<svg viewBox="0 0 24 24" xmlns="http://www.w3.org/2000/svg" fill-rule="evenodd" clip-rule="evenodd" stroke-linejoin="round" stroke-miterlimit="2"><path d="M16.28 8.22a.752.752 0 00-.549-.239.754.754 0 00-.75.75c0 .208.087.407.239.549L17.94 12l-2.72 2.72a.752.752 0 00-.239.549c0 .411.339.75.75.75a.752.752 0 00.549-.239L19 13.06l2.72 2.72a.752.752 0 00.549.239c.411 0 .75-.339.75-.75a.752.752 0 00-.239-.549L20.06 12l2.72-2.72a.752.752 0 00.201-.511.753.753 0 00-.75-.75.752.752 0 00-.511.201L19 10.94l-2.72-2.72z"/><path d="M18.718 4.23a.754.754 0 011.06 0c4.296 4.296 4.296 11.26 0 15.556a.749.749 0 01-1.06-1.06 9.504 9.504 0 000-13.436.753.753 0 010-1.06zm-2.476 3.535c2.328 2.328 2.327 6.158 0 8.485a.749.749 0 01-1.06-1.06 4.499 4.499 0 000-6.364.747.747 0 01-.22-.53.75.75 0 011.28-.531zM12 3.75a.754.754 0 00-.75-.75.748.748 0 00-.505.195L5.46 8H2.75C1.79 8 1 8.79 1 9.75v4.5c0 .966.784 1.75 1.75 1.75h2.71l5.285 4.805a.748.748 0 00.505.195c.411 0 .75-.338.75-.75V3.75zM6.255 9.305l4.245-3.86v13.11l-4.245-3.86a.748.748 0 00-.505-.195h-3a.251.251 0 01-.25-.25v-4.5c0-.137.113-.25.25-.25h3a.748.748 0 00.505-.195z"/></svg>