<svg xmlns="http://www.w3.org/2000/svg" viewBox="0 0 100 100" preserveAspectRatio="xMinYMin meet"><path d="M96.521 2.774H26.788c-.842 0-1.524.683-1.524 1.525v6.091H13.956a1.524 1.524 0 00-1.51 1.728l.592 4.376H2.63a1.521 1.521 0 00-1.463 1.951l23.198 79.53a1.524 1.524 0 001.465 1.099l70.69.001c.842 0 1.525-.68 1.525-1.525V4.3c0-.843-.683-1.526-1.524-1.526zM25.264 13.44v70.634L15.703 13.44h9.561zM13.45 19.543l7.611 56.215L4.662 19.543h8.788zm81.546 76.482H28.312V5.824h66.685v90.201zM54.985 17.866h-24.24v-6.861h24.239l.001 6.861zm37.73 0H68.476v-6.861h24.238l.001 6.861zm-36.166-3.43a5.107 5.107 0 1110.214 0 5.107 5.107 0 01-10.214 0zm32.572 37.175H68.476V28.437H89.12l.001 23.174zM58.605 31.843H33.223v-2.542h25.382v2.542zm-25.382 7.214h25.382v2.542H33.223v-2.542zm.286 9.978h25.382v2.541H33.509v-2.541zm-.286 10.052h55.898v2.541H33.223v-2.541zm0 10.034h55.898v2.541H33.223v-2.541zm0 9.909h55.898v2.542H33.223V79.03z"/></svg>