<svg xmlns="http://www.w3.org/2000/svg" viewBox="0 0 102 49"><title>Shape</title><path fill="none" stroke="#262626" d="M23.403 47.781q5.322 0 9.485-1.76 4.164-1.76 7.039-4.85t4.378-7.381q1.502-4.293 1.502-9.442 0-5.065-1.502-9.357-1.502-4.29-4.378-7.382-2.875-3.09-7.039-4.85Q28.725 1.002 23.403 1t-9.485 1.76Q9.755 4.52 6.88 7.61T2.502 14.99 1 24.348q0 5.15 1.502 9.442t4.378 7.382 7.038 4.85 9.485 1.76Zm0-7.725q-3.261 0-5.665-1.374a11.9 11.9 0 0 1-3.948-3.605q-1.546-2.231-2.275-5.021a22.5 22.5 0 0 1-.73-5.708q0-2.833.73-5.666.73-2.832 2.275-5.021t3.948-3.562q2.403-1.374 5.665-1.374T29.07 10.1t3.948 3.562 2.275 5.021.73 5.666q0 2.918-.73 5.708t-2.275 5.021a11.9 11.9 0 0 1-3.948 3.605q-2.404 1.374-5.666 1.374Zm55.194 7.725q5.321 0 9.485-1.76 4.162-1.76 7.038-4.85 2.875-3.09 4.378-7.381Q101 29.497 101 24.348q0-5.065-1.502-9.357-1.502-4.29-4.378-7.382-2.876-3.09-7.038-4.85Q83.918 1.002 78.597 1q-5.322 0-9.485 1.76-4.164 1.76-7.039 4.85t-4.378 7.381q-1.502 4.292-1.502 9.357 0 5.15 1.502 9.442t4.378 7.382 7.039 4.85 9.485 1.76Zm0-7.725q-3.262 0-5.666-1.374a11.9 11.9 0 0 1-3.948-3.605q-1.545-2.231-2.275-5.021a22.5 22.5 0 0 1-.73-5.708q0-2.833.73-5.666.73-2.832 2.275-5.021t3.948-3.562q2.404-1.374 5.666-1.374t5.665 1.374q2.403 1.373 3.948 3.562 1.546 2.19 2.275 5.021.73 2.833.73 5.666 0 2.918-.73 5.708t-2.275 5.021a11.9 11.9 0 0 1-3.948 3.605q-2.403 1.374-5.665 1.374Z"/></svg>