<svg width="102" height="49" xmlns="http://www.w3.org/2000/svg"><path d="M23.403 47.781c3.548 0 6.71-.586 9.485-1.76 2.776-1.173 5.122-2.79 7.039-4.85 1.917-2.06 3.376-4.52 4.378-7.381 1.001-2.862 1.502-6.009 1.502-9.442 0-3.377-.5-6.495-1.502-9.357-1.002-2.86-2.46-5.321-4.378-7.382-1.917-2.06-4.263-3.676-7.039-4.85C30.113 1.588 26.951 1 23.403 1c-3.547 0-6.71.587-9.485 1.76-2.775 1.173-5.121 2.79-7.038 4.85-1.917 2.06-3.376 4.52-4.378 7.381C1.501 17.853 1 20.971 1 24.348c0 3.433.5 6.58 1.502 9.442 1.002 2.86 2.46 5.322 4.378 7.382 1.917 2.06 4.263 3.676 7.038 4.85 2.776 1.173 5.938 1.76 9.485 1.76zm0-7.725c-2.174 0-4.063-.458-5.665-1.374a11.938 11.938 0 01-3.948-3.605c-1.03-1.488-1.789-3.161-2.275-5.021a22.466 22.466 0 01-.73-5.708c0-1.889.244-3.777.73-5.666.486-1.888 1.245-3.562 2.275-5.021 1.03-1.46 2.346-2.647 3.948-3.562 1.602-.916 3.49-1.374 5.665-1.374s4.063.458 5.666 1.374a12.121 12.121 0 013.948 3.562c1.03 1.46 1.788 3.133 2.275 5.021a22.488 22.488 0 010 11.374c-.487 1.86-1.245 3.533-2.275 5.021a11.938 11.938 0 01-3.948 3.605c-1.603.916-3.491 1.374-5.666 1.374zm55.194 7.725c3.547 0 6.71-.586 9.485-1.76 2.775-1.173 5.121-2.79 7.038-4.85 1.917-2.06 3.376-4.52 4.378-7.381 1.001-2.862 1.502-6.009 1.502-9.442 0-3.377-.5-6.495-1.502-9.357-1.002-2.86-2.46-5.321-4.378-7.382-1.917-2.06-4.263-3.676-7.038-4.85C85.306 1.588 82.144 1 78.597 1c-3.548 0-6.71.587-9.485 1.76-2.776 1.173-5.122 2.79-7.039 4.85-1.917 2.06-3.376 4.52-4.378 7.381-1.001 2.862-1.502 5.98-1.502 9.357 0 3.433.5 6.58 1.502 9.442 1.002 2.86 2.46 5.322 4.378 7.382 1.917 2.06 4.263 3.676 7.039 4.85 2.775 1.173 5.937 1.76 9.485 1.76zm0-7.725c-2.175 0-4.063-.458-5.666-1.374a11.938 11.938 0 01-3.948-3.605c-1.03-1.488-1.788-3.161-2.275-5.021a22.466 22.466 0 01-.73-5.708c0-1.889.244-3.777.73-5.666.487-1.888 1.245-3.562 2.275-5.021 1.03-1.46 2.346-2.647 3.948-3.562 1.603-.916 3.491-1.374 5.666-1.374 2.174 0 4.063.458 5.665 1.374a12.121 12.121 0 013.948 3.562c1.03 1.46 1.789 3.133 2.275 5.021a22.488 22.488 0 010 11.374c-.486 1.86-1.245 3.533-2.275 5.021a11.938 11.938 0 01-3.948 3.605c-1.602.916-3.49 1.374-5.665 1.374z" stroke="#262626" fill="none"/></svg>