<svg width="112" height="176" xmlns="http://www.w3.org/2000/svg"><path d="M56 0c30.928 0 56 25.166 56 56.21 0 31.043-29.387 84.207-56 119.79C30.796 141.888 0 87.253 0 56.21 0 25.166 25.072 0 56 0zm10.244 28H32v83h21.512V83.48h12.732c9.293 0 16.408-2.422 21.347-7.265C92.531 71.37 95 64.546 95 55.74c0-8.806-2.47-15.631-7.409-20.475-4.836-4.742-11.759-7.163-20.77-7.262L66.245 28zm-5.598 17.393c7.903 0 11.854 3.449 11.854 10.347s-3.951 10.348-11.854 10.348h-7.134V45.393h7.134z" fill="#4673EA"/></svg>