<svg viewBox="0 0 112 108" xmlns="http://www.w3.org/2000/svg" fill-rule="evenodd" clip-rule="evenodd" stroke-linejoin="round" stroke-miterlimit="2"><path d="M2.229 105.725c-6.13-6.13.501-14.552 18.497-23.495l11.324-5.627 4.411-9.653c2.425-5.308 6.047-13.97 8.047-19.248l3.636-9.596-2.505-7.102c-3.082-8.733-4.18-21.855-2.225-26.574 2.648-6.391 11.319-5.735 14.752 1.116 2.68 5.351 2.408 15.04-.772 27.262l-2.605 10.02 2.295 3.896c1.263 2.142 4.95 7.23 8.195 11.306l6.097 7.586 7.588-.992c24.104-3.145 32.36 2.202 32.36 9.867 0 9.673-18.927 10.471-34.82-.692-3.578-2.512-6.033-5.007-6.033-5.007s-9.957 2.028-14.86 3.349c-5.06 1.364-7.584 2.219-14.997 4.72 0 0-2.602 3.778-4.295 6.524-6.306 10.214-13.668 18.68-18.925 21.76-5.887 3.45-12.059 3.686-15.165.58zm9.618-3.436c3.445-2.13 10.418-10.377 15.245-18.032l1.954-3.099-8.899 4.474C6.404 92.542.117 99.054 3.385 102.995c1.838 2.213 4.034 2.03 8.462-.706zm89.273-25.06c3.371-2.36 2.881-7.117-.927-9.035-2.966-1.492-5.356-1.799-13.058-1.684-4.733.322-12.343 1.276-13.633 1.567 0 0 4.181 2.888 6.036 3.951 2.472 1.412 8.477 4.032 12.862 5.373 4.324 1.324 6.825 1.185 8.72-.172zM65.225 62.31c-2.039-2.144-5.508-6.618-7.706-9.943-2.877-3.772-4.318-6.433-4.318-6.433s-2.102 6.761-3.826 10.83l-5.381 13.299-1.56 3.016s8.293-2.72 12.513-3.82c4.469-1.169 13.538-2.951 13.538-2.951l-3.26-3.998zM53.657 15.92c.52-4.365.74-8.725-.662-10.923-3.89-4.252-8.585-.706-7.79 9.405.267 3.402 1.113 9.216 2.243 12.799l2.053 6.516 1.445-4.907c.796-2.7 2.016-8.5 2.71-12.89z" fill="#ff2116" fill-rule="nonzero"/></svg>