<svg xmlns="http://www.w3.org/2000/svg" xml:space="preserve" style="fill-rule:evenodd;clip-rule:evenodd;stroke-linejoin:round;stroke-miterlimit:2" viewBox="0 0 112 108"><path d="M-66.352 456.642c-4.13-4.13.338-9.804 12.462-15.829l7.629-3.791 2.972-6.503c1.634-3.576 4.074-9.412 5.421-12.968l2.45-6.465-1.688-4.785c-2.076-5.883-2.816-14.724-1.499-17.903 1.784-4.306 7.626-3.864 9.939.752 1.806 3.605 1.622 10.133-.52 18.367l-1.755 6.75 1.546 2.625c.851 1.443 3.335 4.871 5.521 7.617l4.108 5.111 5.112-.668c16.239-2.119 21.802 1.483 21.802 6.647 0 6.517-12.752 7.055-23.46-.466a32.5 32.5 0 0 1-4.064-3.373s-6.708 1.366-10.011 2.256c-3.41.919-5.11 1.495-10.104 3.18 0 0-1.753 2.545-2.894 4.395-4.248 6.882-9.208 12.585-12.75 14.661-3.966 2.324-8.124 2.483-10.217.39m6.48-2.315c2.321-1.435 7.019-6.991 10.271-12.148l1.316-2.088-5.995 3.014c-9.259 4.656-13.495 9.043-11.293 11.698 1.238 1.491 2.718 1.367 5.701-.476M.273 437.444c2.271-1.59 1.941-4.795-.625-6.087-1.998-1.005-3.608-1.212-8.797-1.135-3.189.217-8.316.86-9.185 1.056 0 0 2.817 1.946 4.067 2.662 1.665.951 5.711 2.716 8.665 3.62 2.913.892 4.598.798 5.875-.116m-24.183-10.051c-1.374-1.445-3.711-4.459-5.192-6.699-1.938-2.541-2.909-4.334-2.909-4.334s-1.416 4.555-2.578 7.296l-3.625 8.96-1.051 2.032s5.587-1.832 8.43-2.574c3.011-.787 9.121-1.988 9.121-1.988zm-7.794-31.254c.351-2.941.499-5.878-.446-7.359-2.621-2.865-5.784-.476-5.248 6.336.18 2.292.75 6.209 1.511 8.623l1.383 4.39.974-3.306c.536-1.819 1.358-5.727 1.826-8.684" style="fill:#ff2116;fill-rule:nonzero" transform="translate(100.715 -572.069)scale(1.4843)"/></svg>