<svg xmlns="http://www.w3.org/2000/svg" viewBox="0 0 512 512"><path d="m451.7 99.72-71.4-71.44C364.7 12.73 334 0 312 0H72C50 0 32 18 32 40v432c0 22 18 40 40 40h368c22 0 40-18 40-40V168c0-22-12.7-52.7-28.3-68.28"/><path fill="#fff" d="M448 472c0 4.3-3.7 8-8 8H72c-4.34 0-8-3.7-8-8V40c0-4.34 3.66-8 8-8h240c2.4 0 5.1.3 8 .85v127.2h127.1c.6 2.9.9 5.6.9 8v304z"/><path d="M414.5 316.8c-2.1 1.3-8.1 2.1-11.9 2.1-12.4 0-27.6-5.7-49.1-14.9 8.3-.6 15.8-.9 22.6-.9 12.4 0 16 0 28.2 3.1 12.1 3 12.2 9.3 10.2 10.6m-215.1 1.9c4.8-8.4 9.7-17.3 14.7-26.8 12.2-23.1 20-41.3 25.7-56.2 11.5 20.9 25.8 38.6 42.5 52.8 2.1 1.8 4.3 3.5 6.7 5.3-34.1 6.8-63.6 15-89.6 24.9m39.8-218.9c6.8 0 10.7 17.06 11 33.16.3 16-3.4 27.2-8.1 35.6-3.9-12.4-5.7-31.8-5.7-44.5 0 0-.3-24.26 2.8-24.26M105.8 407c3.9-10.5 19.1-31.3 41.6-49.8 1.4-1.1 4.9-4.4 8.1-7.4-23.5 37.6-39.3 52.5-49.7 57.2M421 294.7c-6.8-6.7-22-10.2-45-10.5-15.6-.2-34.3 1.2-54.1 3.9-8.8-5.1-17.9-10.6-25.1-17.3-19.2-18-35.2-42.9-45.2-70.3.6-2.6 1.2-4.8 1.7-7.1 0 0 10.8-61.5 7.9-82.3-.4-2.9-.6-3.7-1.4-5.9l-.9-2.5c-2.9-6.76-8.7-13.96-17.8-13.57l-5.3-.17h-.1c-10.1 0-18.4 5.17-20.5 12.84-6.6 24.3.2 60.5 12.5 107.4l-3.2 7.7c-8.8 21.4-19.8 43-29.5 62l-1.3 2.5c-10.2 20-19.5 37-27.9 51.4l-8.7 4.6c-.6.4-15.5 8.2-19 10.3-29.6 17.7-49.28 37.8-52.54 53.8-1.04 5-.26 11.5 5.01 14.6l8.4 4.2c3.63 1.8 7.53 2.7 11.43 2.7 21.1 0 45.6-26.2 79.3-85.1 39-12.7 83.4-23.3 122.3-29.1 29.6 16.7 66 28.3 89 28.3q6.15 0 10.5-1.2c4.4-1.1 8.1-3.6 10.4-7.1 4.4-6.7 5.4-15.9 4.1-25.4-.3-2.8-2.6-6.3-5-8.7"/><path fill="#fff" d="M429.1 122.3c1.6 1.6 3.1 3.5 4.6 5.7H352V46.27c2.2 1.52 4.1 3.08 5.7 4.64z"/></svg>