<svg viewBox="0 0 143 134" xmlns="http://www.w3.org/2000/svg" preserveAspectRatio="xMinYMin meet"><path d="M88.659 74.354c6.909-7.124 10.785-18.888 12.285-33.287C103.092 18.574 89.301 0 70.47 0 51.64 0 37.55 19.222 39.997 41.67c1.791 15.276 5.708 26.818 12.735 33.52.938 4.917 1.355 12.515-3.156 16.422-7.963 6.896-11.838 9.087-21.297 11.42C2.25 109.454 4.226 123.385 0 133.882L143 134c-4.9-11.114-2.494-24.897-28.36-30.406-11.666-2.485-14.45-4.67-23.57-12.095-5.389-4.387-4.142-13.14-2.411-17.145z" fill="#CCC"/></svg>