<svg viewBox="0 0 305 400" xmlns="http://www.w3.org/2000/svg" preserveAspectRatio="xMinYMin meet"><path d="M189.098 272.697c14.736-15.206 23.003-40.314 26.202-71.047 4.582-48.006-24.832-87.65-64.996-87.65-40.163 0-70.214 41.026-64.996 88.937 3.821 32.604 12.174 57.24 27.161 71.545 2.003 10.492 2.89 26.71-6.73 35.048-16.984 14.719-25.25 19.394-45.423 24.375C4.796 347.612 9.013 377.345 0 399.746L305 400c-10.453-23.722-5.32-53.138-60.489-64.896-24.882-5.303-30.818-9.968-50.27-25.814-11.495-9.364-8.836-28.045-5.143-36.593z" fill="#ccc"/></svg>