<svg height="30" width="30" xmlns="http://www.w3.org/2000/svg"><path clip-rule="evenodd" fill="#DD5B26" fill-rule="evenodd" d="M30.103 28.75H0V0h30.103v28.75"/><path d="M17.364 12.962c0-.536-.164-.968-.494-1.287-.332-.322-.896-.482-1.69-.482h-1.328v3.589h1.318c.854 0 1.441-.178 1.76-.529.291-.318.434-.748.434-1.291m3.516-.036c0 1.185-.3 2.165-.896 2.941-.772 1.005-2.057 1.508-3.854 1.508h-2.279v4.585h-3.514V8.6h5.733c1.628 0 2.865.453 3.714 1.356.731.774 1.096 1.764 1.096 2.97z" fill="#FFF"/></svg>