<svg xmlns="http://www.w3.org/2000/svg" viewBox="0 0 24 24" fill="none" stroke="inherit" stroke-width="2" stroke-linecap="round" stroke-linejoin="round"><path d="M21 11.5a8.37 8.37 0 01-.9 3.8 8.49 8.49 0 01-7.6 4.7 8.37 8.37 0 01-3.8-.9L3 21l1.9-5.7a8.37 8.37 0 01-.9-3.8 8.49 8.49 0 014.7-7.6 8.37 8.37 0 013.8-.9h.5a8.48 8.48 0 018 8z"/><path d="M9.49 10a7.58 7.58 0 00.72 1.42A8 8 0 0014 14.5M9.49 10a7.47 7.47 0 01-.4-1.4.51.51 0 01.52-.6h0a.54.54 0 01.51.37l.38 1.13zM14 14.5a7.8 7.8 0 001.43.41.51.51 0 00.6-.52h0a.54.54 0 00-.37-.51l-1.16-.38z"/></svg>