<!-- <svg viewBox="0 0 230 130" xmlns="http://www.w3.org/2000/svg">
	<polyline fill="none" stroke="inherit" stroke-width="20" points="10 10 110 110 210 10"></polyline>
</svg>

polyline or with rounded corners bellow

<svg viewBox="0 0 220 120" xmlns="http://www.w3.org/2000/svg">
    <path d="M2.92893219,2.92893219 C6.76317069,-0.905306313 12.9363852,-0.97501974 16.8556774,2.71979191 L17.0710678,2.92893219 L110,95.857 L202.928932,2.92893219 C206.763171,-0.905306313 212.936385,-0.97501974 216.855677,2.71979191 L217.071068,2.92893219 C220.905306,6.76317069 220.97502,12.9363852 217.280208,16.8556774 L217.071068,17.0710678 L117.071068,117.071068 C113.236829,120.905306 107.063615,120.97502 103.144323,117.280208 L102.928932,117.071068 L2.92893219,17.0710678 C-0.976310729,13.1658249 -0.976310729,6.83417511 2.92893219,2.92893219 Z" fill="inherit" ></path>
</svg> -->
<svg viewBox="0 0 240 140" xmlns="http://www.w3.org/2000/svg">
	<polyline fill="none" stroke-width="inherit" stroke="inherit" points="20 20 120 120 220 20"></polyline>
</svg>
