<svg viewBox="0 0 139 16" version="1.1" xmlns="http://www.w3.org/2000/svg" preserveAspectRatio="xMinYMin meet">
    <path d="M131.615626,0.209704612 L138.707215,7.29289322 C138.742596,7.32828727 139,7.62834167 139,8 C139,8.37165833 138.782708,8.62256244 138.780392,8.62544899 C138.778848,8.62737336 136.421984,10.987926 131.709799,15.7071068 C131.319419,16.0976311 130.686488,16.0976311 130.296107,15.7071068 C129.935757,15.3466228 129.908037,14.7793918 130.21295,14.3871006 L135.585929,9 L0.999630846,9 C0.447549974,9 0,8.52066019 0,8 C0,7.47933981 0.294022196,7 0.999630846,7.00672773 L135.585929,7 L130.296107,1.70710678 C129.935757,1.34662282 129.908037,0.779391764 130.21295,0.387100557 L130.296107,0.292893219 C130.656458,-0.0675907428 131.22348,-0.0953202783 131.615626,0.209704612 Z"></path>
</svg>
