<svg xmlns="http://www.w3.org/2000/svg" version="1.0" x="0px" y="0px" viewBox="0 0 21.94 25.729" style="enable-background:new 0 0 21.94 25.729;" xml:space="preserve" preserveAspectRatio="xMinYMin meet">
	<path d="M8.031,14.927c0.24,0.323,1.243,1.37,2.939,1.37c1.63,0,2.612-0.948,2.9-1.321c-0.11-0.364-0.123-0.887,0.127-1.646h-0.009   c1.637-1.686,2.888-4.399,2.888-7.07c0-4.107-2.731-6.26-5.905-6.26C7.795,0,5.079,2.152,5.079,6.26   c0,2.682,1.244,5.406,2.891,7.088C8.237,14.047,8.188,14.556,8.031,14.927z"></path><path d="M14.949,15.889c0,0-0.999,4.635-2.31,7.28c-0.465-2.009-1.339-3.86-1.339-3.86s1.119-0.462,1.119-1.215   c0-0.928-1.449-1.389-1.449-1.389s-1.453,0.326-1.453,1.389c0,0.721,1.123,1.215,1.123,1.215s-0.876,1.86-1.34,3.858   c-1.319-2.657-2.33-7.323-2.33-7.323l0.007-0.007C3.709,17.057,0,19.191,0,21.301c0,0.584,0,0.23,0,0.811   c0,2.947,5.714,3.617,11.002,3.617c5.296,0,10.938-0.67,10.938-3.617c0-0.58,0-0.227,0-0.811   C21.94,19.16,18.325,17.073,14.949,15.889z"></path>
</svg>