<svg width="20px" height="15px" viewBox="0 0 20 15" version="1.1" xmlns="http://www.w3.org/2000/svg" xmlns:xlink="http://www.w3.org/1999/xlink">
    <defs>
        <path d="M4,7.93638045 L4,18 L20,18 L20,7.93638045 L13.2493901,14.2811128 C12.5189528,14.8654626 11.4810472,14.8654626 10.7506099,14.2811128 L4,7.93638045 Z M5.91475186,7 L12,12.7193752 L18.0852481,7 L5.91475186,7 Z M4,5 L20,5 C21.1045695,5 22,5.8954305 22,7 L22,18 C22,19.1045695 21.1045695,20 20,20 L4,20 C2.8954305,20 2,19.1045695 2,18 L2,7 C2,5.8954305 2.8954305,5 4,5 Z" id="path-1"></path>
    </defs>
    <g id="Symbols" stroke="none" stroke-width="1" fill="inherit" fill-rule="evenodd">
        <g id="email" transform="translate(-2.000000, -5.000000)">
            <mask id="mask-2" fill="inherit">
                <use xlink:href="#path-1"></use>
            </mask>
            <g id="Shape" fill-rule="nonzero"></g>
            <g id="color/black" mask="url(#mask-2)" fill="inherit">
                <rect id="Change-Fill-Color" x="0" y="0" width="24" height="24"></rect>
            </g>
        </g>
    </g>
</svg>
