<svg viewBox="0 0 545 402" version="1.1" xmlns="http://www.w3.org/2000/svg">
     <path d="M509,173 C509,180 504,183 493,183 L183,183 C175,183 167,181 158,177 C149,173 143,168 138,162 L54,58 C50,54 49,50 49,47 C49,40 54,37 64,37 L375,37 C382,37 390,39 399,43 C408,47 415,52 419,58 L503,162 C507,166 509,170 509,173 Z M183,220 L402,220 L402,265 C402,273 399,279 394,285 C389,290 382,293 375,293 L210,293 C202,293 196,295 191,301 C185,306 183,313 183,320 L183,338 C183,346 180,353 175,358 C169,363 163,366 155,366 L64,366 C56,366 50,363 44,358 C39,353 36,346 36,338 L36,95 L109,185 C118,195 129,203 143,210 C156,216 170,220 183,220 Z M545,173 C545,161 541,150 532,139 L448,35 C440,25 428,17 415,10 C401,3 387,0 375,0 L64,0 C46,0 31,6 19,19 C6,32 0,47 0,64 L0,338 C0,356 6,371 19,384 C31,396 46,402 64,402 L155,402 C173,402 188,396 200,384 C213,371 219,356 219,338 L219,329 L375,329 C392,329 407,323 420,310 C432,298 439,283 439,265 L439,220 L493,220 C504,220 513,217 522,213 C530,208 537,201 541,192 C544,186 545,180 545,173 Z" fill="inherit" fill-rule="nonzero" stroke="none" transform="translate(272.500000, 201.000000) scale(1, -1) translate(-272.500000, -201.000000) "></path>
</svg>
