<svg viewBox="0 0 150 150" version="1.1" xmlns="http://www.w3.org/2000/svg">
    <!-- icon fills up 100% of the svg
        <rect x="0" y="0" width="150" height="150"  fill="#00FFFF"></rect> -->
    <g stroke="#000000" stroke-width="4" fill="#FFFFFF" fill-rule="nonzero">
        <path d="M34.7090129,39.9141628 C39.8889843,39.9141628 44.5050071,40.770529 48.5570815,42.4832615 C52.6091559,44.195994 56.0346209,46.5562228 58.8334765,49.5639481 C61.6323319,52.5716734 63.762804,56.1642343 65.2248927,60.3416305 C66.6869814,64.5190268 67.4180257,69.0723888 67.4180257,74.0017165 C67.4180257,79.0145919 66.6869814,83.6097279 65.2248927,87.7871242 C63.762804,91.9645205 61.6323319,95.5570813 58.8334765,98.5648066 C56.0346209,101.572532 52.6091559,103.932761 48.5570815,105.645494 C44.5050071,107.358226 39.8889843,108.214593 34.7090129,108.214593 C29.5290414,108.214593 24.9130186,107.358226 20.8609442,105.645494 C16.8088698,103.932761 13.3834049,101.572532 10.5845494,98.5648066 C7.78569384,95.5570813 5.65522169,91.9645205 4.19313304,87.7871242 C2.73104439,83.6097279 2,79.0145919 2,74.0017165 C2,69.0723888 2.73104439,64.5190268 4.19313304,60.3416305 C5.65522169,56.1642343 7.78569384,52.5716734 10.5845494,49.5639481 C13.3834049,46.5562228 16.8088698,44.195994 20.8609442,42.4832615 C24.9130186,40.770529 29.5290414,39.9141628 34.7090129,39.9141628 Z M34.7090129,51.1931327 C31.5341917,51.1931327 28.7771102,51.8615162 26.4377682,53.1982829 C24.0984263,54.5350498 22.1768241,56.2686693 20.6729614,58.3991413 C19.1690987,60.5296134 18.0620887,62.9733903 17.3519314,65.7304718 C16.641774,68.4875533 16.2866953,71.2446348 16.2866953,74.0017165 C16.2866953,76.8423459 16.641774,79.6203144 17.3519314,82.3356221 C18.0620887,85.0509296 19.1690987,87.4947064 20.6729614,89.6669524 C22.1768241,91.8391986 24.0984263,93.5937049 26.4377682,94.9304718 C28.7771102,96.2672386 31.5341917,96.9356221 34.7090129,96.9356221 C37.883834,96.9356221 40.6409157,96.2672386 42.9802575,94.9304718 C45.3195994,93.5937049 47.2412018,91.8391986 48.7450644,89.6669524 C50.2489271,87.4947064 51.355937,85.0509296 52.0660944,82.3356221 C52.7762518,79.6203144 53.1313305,76.8423459 53.1313305,74.0017165 C53.1313305,71.2446348 52.7762518,68.4875533 52.0660944,65.7304718 C51.355937,62.9733903 50.2489271,60.5296134 48.7450644,58.3991413 C47.2412018,56.2686693 45.3195994,54.5350498 42.9802575,53.1982829 C40.6409157,51.8615162 37.883834,51.1931327 34.7090129,51.1931327 Z"></path>
        <path d="M115.290987,39.9141628 C120.470959,39.9141628 125.086981,40.770529 129.139056,42.4832615 C133.19113,44.195994 136.616595,46.5562228 139.415451,49.5639481 C142.214306,52.5716734 144.344778,56.1642343 145.806867,60.3416305 C147.268956,64.5190268 148,69.0723888 148,74.0017165 C148,79.0145919 147.268956,83.6097279 145.806867,87.7871242 C144.344778,91.9645205 142.214306,95.5570813 139.415451,98.5648066 C136.616595,101.572532 133.19113,103.932761 129.139056,105.645494 C125.086981,107.358226 120.470959,108.214593 115.290987,108.214593 C110.111016,108.214593 105.494993,107.358226 101.442918,105.645494 C97.3908441,103.932761 93.9653791,101.572532 91.1665235,98.5648066 C88.3676681,95.5570813 86.237196,91.9645205 84.7751073,87.7871242 C83.3130186,83.6097279 82.5819743,79.0145919 82.5819743,74.0017165 C82.5819743,69.0723888 83.3130186,64.5190268 84.7751073,60.3416305 C86.237196,56.1642343 88.3676681,52.5716734 91.1665235,49.5639481 C93.9653791,46.5562228 97.3908441,44.195994 101.442918,42.4832615 C105.494993,40.770529 110.111016,39.9141628 115.290987,39.9141628 Z M115.290987,51.1931327 C112.116166,51.1931327 109.359084,51.8615162 107.019743,53.1982829 C104.680401,54.5350498 102.758798,56.2686693 101.254936,58.3991413 C99.7510729,60.5296134 98.644063,62.9733903 97.9339056,65.7304718 C97.2237482,68.4875533 96.8686695,71.2446348 96.8686695,74.0017165 C96.8686695,76.8423459 97.2237482,79.6203144 97.9339056,82.3356221 C98.644063,85.0509296 99.7510729,87.4947064 101.254936,89.6669524 C102.758798,91.8391986 104.680401,93.5937049 107.019743,94.9304718 C109.359084,96.2672386 112.116166,96.9356221 115.290987,96.9356221 C118.465808,96.9356221 121.222889,96.2672386 123.562232,94.9304718 C125.901574,93.5937049 127.823176,91.8391986 129.327039,89.6669524 C130.830901,87.4947064 131.937911,85.0509296 132.648068,82.3356221 C133.358226,79.6203144 133.713305,76.8423459 133.713305,74.0017165 C133.713305,71.2446348 133.358226,68.4875533 132.648068,65.7304718 C131.937911,62.9733903 130.830901,60.5296134 129.327039,58.3991413 C127.823176,56.2686693 125.901574,54.5350498 123.562232,53.1982829 C121.222889,51.8615162 118.465808,51.1931327 115.290987,51.1931327 Z" stroke="#000000" stroke-width="4" fill="#FFFFFF" fill-rule="nonzero"></path>
    </g>
</svg>
