<svg  viewBox="0 0 394 394" version="1.1" xmlns="http://www.w3.org/2000/svg"  preserveAspectRatio="xMinYMin meet">
<g stroke="none" stroke-width="1" fill="none" fill-rule="evenodd">
    <path d="M9.5,9.5 L9.5,96.5 L96.5,96.5 L96.5,9.5 L9.5,9.5 Z M9.5,153.5 L9.5,240.5 L96.5,240.5 L96.5,153.5 L9.5,153.5 Z M82.3224448,297.5 L9.5,297.5 L9.5,392.265627 M153.5,9.5 L153.5,96.5 L240.5,96.5 L240.5,9.5 L153.5,9.5 Z M153.5,211.933053 L153.360913,153.435368 L240.960588,152.613884 L240.5,215.507746 M297.5,9.5 L297.5,96.5 L384.5,96.5 L384.5,9.5 L297.5,9.5 Z M297.5,153.5 L297.5,240.5 L384.5,240.5 L384.5,153.5 L297.5,153.5 Z M384.5,389.621108 L384.5,297.5 L310.462808,297.5" id="Shape" stroke="#43536D" stroke-width="18"></path>
    <polygon id="Path" stroke="#43536D" stroke-width="18" fill="#43536D" points="25.7934796 374.065662 154.917016 332.654695 153.5 384.5 240.5 384.5 240.793065 332.412624 368.403112 371.68079 195.6875 158.257813"></polygon>
</g>
</svg>