<svg viewBox="0 0 150 150" version="1.1" xmlns="http://www.w3.org/2000/svg">
    <path d="M41.8841202,46.9313305 C46.1416309,46.9313305 49.9356223,47.6351931 53.2660944,49.0429185 C56.5965665,50.4506438 59.4120172,52.3905579 61.7124464,54.8626609 C64.0128755,57.3347639 65.7639485,60.2875536 66.9656652,63.72103 C68.167382,67.1545064 68.7682403,70.8969957 68.7682403,74.9484979 C68.7682403,79.0686695 68.167382,82.8454936 66.9656652,86.27897 C65.7639485,89.7124464 64.0128755,92.6652361 61.7124464,95.1373391 C59.4120172,97.6094421 56.5965665,99.5493562 53.2660944,100.957082 C49.9356223,102.364807 46.1416309,103.06867 41.8841202,103.06867 C37.6266094,103.06867 33.832618,102.364807 30.5021459,100.957082 C27.1716738,99.5493562 24.3562232,97.6094421 22.055794,95.1373391 C19.7553648,92.6652361 18.0042918,89.7124464 16.8025751,86.27897 C15.6008584,82.8454936 15,79.0686695 15,74.9484979 C15,70.8969957 15.6008584,67.1545064 16.8025751,63.72103 C18.0042918,60.2875536 19.7553648,57.3347639 22.055794,54.8626609 C24.3562232,52.3905579 27.1716738,50.4506438 30.5021459,49.0429185 C33.832618,47.6351931 37.6266094,46.9313305 41.8841202,46.9313305 Z M41.8841202,56.2017167 C39.2746781,56.2017167 37.0085837,56.751073 35.0858369,57.8497854 C33.1630901,58.9484979 31.583691,60.3733906 30.3476395,62.1244635 C29.111588,63.8755365 28.2017167,65.8841202 27.6180258,68.1502146 C27.0343348,70.416309 26.7424893,72.6824034 26.7424893,74.9484979 C26.7424893,77.2832618 27.0343348,79.5665236 27.6180258,81.7982833 C28.2017167,84.0300429 29.111588,86.0386266 30.3476395,87.8240343 C31.583691,89.6094421 33.1630901,91.0515021 35.0858369,92.1502146 C37.0085837,93.248927 39.2746781,93.7982833 41.8841202,93.7982833 C44.4935622,93.7982833 46.7596567,93.248927 48.6824034,92.1502146 C50.6051502,91.0515021 52.1845494,89.6094421 53.4206009,87.8240343 C54.6566524,86.0386266 55.5665236,84.0300429 56.1502146,81.7982833 C56.7339056,79.5665236 57.0257511,77.2832618 57.0257511,74.9484979 C57.0257511,72.6824034 56.7339056,70.416309 56.1502146,68.1502146 C55.5665236,65.8841202 54.6566524,63.8755365 53.4206009,62.1244635 C52.1845494,60.3733906 50.6051502,58.9484979 48.6824034,57.8497854 C46.7596567,56.751073 44.4935622,56.2017167 41.8841202,56.2017167 Z" stroke="#000000" fill="#FFFFFF"></path>
    <path d="M108.11588,46.9313305 C112.373391,46.9313305 116.167382,47.6351931 119.497854,49.0429185 C122.828326,50.4506438 125.643777,52.3905579 127.944206,54.8626609 C130.244635,57.3347639 131.995708,60.2875536 133.197425,63.72103 C134.399142,67.1545064 135,70.8969957 135,74.9484979 C135,79.0686695 134.399142,82.8454936 133.197425,86.27897 C131.995708,89.7124464 130.244635,92.6652361 127.944206,95.1373391 C125.643777,97.6094421 122.828326,99.5493562 119.497854,100.957082 C116.167382,102.364807 112.373391,103.06867 108.11588,103.06867 C103.858369,103.06867 100.064378,102.364807 96.7339056,100.957082 C93.4034335,99.5493562 90.5879828,97.6094421 88.2875536,95.1373391 C85.9871245,92.6652361 84.2360515,89.7124464 83.0343348,86.27897 C81.832618,82.8454936 81.2317597,79.0686695 81.2317597,74.9484979 C81.2317597,70.8969957 81.832618,67.1545064 83.0343348,63.72103 C84.2360515,60.2875536 85.9871245,57.3347639 88.2875536,54.8626609 C90.5879828,52.3905579 93.4034335,50.4506438 96.7339056,49.0429185 C100.064378,47.6351931 103.858369,46.9313305 108.11588,46.9313305 Z M108.11588,56.2017167 C105.506438,56.2017167 103.240343,56.751073 101.317597,57.8497854 C99.3948498,58.9484979 97.8154506,60.3733906 96.5793991,62.1244635 C95.3433476,63.8755365 94.4334764,65.8841202 93.8497854,68.1502146 C93.2660944,70.416309 92.9742489,72.6824034 92.9742489,74.9484979 C92.9742489,77.2832618 93.2660944,79.5665236 93.8497854,81.7982833 C94.4334764,84.0300429 95.3433476,86.0386266 96.5793991,87.8240343 C97.8154506,89.6094421 99.3948498,91.0515021 101.317597,92.1502146 C103.240343,93.248927 105.506438,93.7982833 108.11588,93.7982833 C110.725322,93.7982833 112.991416,93.248927 114.914163,92.1502146 C116.83691,91.0515021 118.416309,89.6094421 119.652361,87.8240343 C120.888412,86.0386266 121.798283,84.0300429 122.381974,81.7982833 C122.965665,79.5665236 123.257511,77.2832618 123.257511,74.9484979 C123.257511,72.6824034 122.965665,70.416309 122.381974,68.1502146 C121.798283,65.8841202 120.888412,63.8755365 119.652361,62.1244635 C118.416309,60.3733906 116.83691,58.9484979 114.914163,57.8497854 C112.991416,56.751073 110.725322,56.2017167 108.11588,56.2017167 Z" stroke="#000000" fill="#FFFFFF"></path>
</svg>
