<svg width="342" height="68" viewBox="0 0 342 68" version="1.1" xmlns="http://www.w3.org/2000/svg" >
    <path d="M26.512,67.344 C30.48,67.344 34.016,66.688 37.12,65.376 C40.224,64.064 42.848,62.256 44.992,59.952 C47.136,57.648 48.768,54.896 49.888,51.696 C51.008,48.496 51.568,44.976 51.568,41.136 C51.568,37.36 51.008,33.872 49.888,30.672 C48.768,27.472 47.136,24.72 44.992,22.416 C42.848,20.112 40.224,18.304 37.12,16.992 C34.016,15.68 30.48,15.024 26.512,15.024 C22.544,15.024 19.008,15.68 15.904,16.992 C12.8,18.304 10.176,20.112 8.032,22.416 C5.888,24.72 4.256,27.472 3.136,30.672 C2.016,33.872 1.456,37.36 1.456,41.136 C1.456,44.976 2.016,48.496 3.136,51.696 C4.256,54.896 5.888,57.648 8.032,59.952 C10.176,62.256 12.8,64.064 15.904,65.376 C19.008,66.688 22.544,67.344 26.512,67.344 Z M26.512,58.704 C24.08,58.704 21.968,58.192 20.176,57.168 C18.384,56.144 16.912,54.8 15.76,53.136 C14.608,51.472 13.76,49.6 13.216,47.52 C12.672,45.44 12.4,43.312 12.4,41.136 C12.4,39.024 12.672,36.912 13.216,34.8 C13.76,32.688 14.608,30.816 15.76,29.184 C16.912,27.552 18.384,26.224 20.176,25.2 C21.968,24.176 24.08,23.664 26.512,23.664 C28.944,23.664 31.056,24.176 32.848,25.2 C34.64,26.224 36.112,27.552 37.264,29.184 C38.416,30.816 39.264,32.688 39.808,34.8 C40.352,36.912 40.624,39.024 40.624,41.136 C40.624,43.312 40.352,45.44 39.808,47.52 C39.264,49.6 38.416,51.472 37.264,53.136 C36.112,54.8 34.64,56.144 32.848,57.168 C31.056,58.192 28.944,58.704 26.512,58.704 Z M88.24,67.344 C92.208,67.344 95.744,66.688 98.848,65.376 C101.952,64.064 104.576,62.256 106.72,59.952 C108.864,57.648 110.496,54.896 111.616,51.696 C112.736,48.496 113.296,44.976 113.296,41.136 C113.296,37.36 112.736,33.872 111.616,30.672 C110.496,27.472 108.864,24.72 106.72,22.416 C104.576,20.112 101.952,18.304 98.848,16.992 C95.744,15.68 92.208,15.024 88.24,15.024 C84.272,15.024 80.736,15.68 77.632,16.992 C74.528,18.304 71.904,20.112 69.76,22.416 C67.616,24.72 65.984,27.472 64.864,30.672 C63.744,33.872 63.184,37.36 63.184,41.136 C63.184,44.976 63.744,48.496 64.864,51.696 C65.984,54.896 67.616,57.648 69.76,59.952 C71.904,62.256 74.528,64.064 77.632,65.376 C80.736,66.688 84.272,67.344 88.24,67.344 Z M88.24,58.704 C85.808,58.704 83.696,58.192 81.904,57.168 C80.112,56.144 78.64,54.8 77.488,53.136 C76.336,51.472 75.488,49.6 74.944,47.52 C74.4,45.44 74.128,43.312 74.128,41.136 C74.128,39.024 74.4,36.912 74.944,34.8 C75.488,32.688 76.336,30.816 77.488,29.184 C78.64,27.552 80.112,26.224 81.904,25.2 C83.696,24.176 85.808,23.664 88.24,23.664 C90.672,23.664 92.784,24.176 94.576,25.2 C96.368,26.224 97.84,27.552 98.992,29.184 C100.144,30.816 100.992,32.688 101.536,34.8 C102.08,36.912 102.352,39.024 102.352,41.136 C102.352,43.312 102.08,45.44 101.536,47.52 C100.992,49.6 100.144,51.472 98.992,53.136 C97.84,54.8 96.368,56.144 94.576,57.168 C92.784,58.192 90.672,58.704 88.24,58.704 Z M144.208,66.48 C145.424,66.48 146.608,66.416 147.76,66.288 C148.912,66.16 150.096,66.032 151.312,65.904 L151.312,65.904 L151.312,57.456 C150.544,57.648 149.776,57.76 149.008,57.792 C148.24,57.824 147.472,57.84 146.704,57.84 C145.488,57.84 144.528,57.696 143.824,57.408 C143.12,57.12 142.592,56.688 142.24,56.112 C141.888,55.536 141.664,54.832 141.568,54 C141.472,53.168 141.424,52.176 141.424,51.024 L141.424,51.024 L141.424,24.528 L151.312,24.528 L151.312,16.368 L141.424,16.368 L141.424,1.488 L130.48,1.488 L130.48,16.368 L122.224,16.368 L122.224,24.528 L130.48,24.528 L130.48,53.808 C130.544,55.856 130.752,57.68 131.104,59.28 C131.456,60.88 132.128,62.208 133.12,63.264 C134.112,64.32 135.488,65.12 137.248,65.664 C139.008,66.208 141.328,66.48 144.208,66.48 Z M183.28,67.344 C185.84,67.344 188.432,67.056 191.056,66.48 C193.68,65.904 196.064,64.976 198.208,63.696 C200.352,62.416 202.096,60.752 203.44,58.704 C204.784,56.656 205.456,54.16 205.456,51.216 C205.456,48.784 204.992,46.736 204.064,45.072 C203.136,43.408 201.92,42.032 200.416,40.944 C198.912,39.856 197.2,38.992 195.28,38.352 C193.36,37.712 191.408,37.168 189.424,36.72 C187.376,36.272 185.392,35.856 183.472,35.472 C181.552,35.088 179.84,34.624 178.336,34.08 C176.832,33.536 175.616,32.848 174.688,32.016 C173.76,31.184 173.296,30.096 173.296,28.752 C173.296,27.664 173.616,26.784 174.256,26.112 C174.896,25.44 175.68,24.928 176.608,24.576 C177.536,24.224 178.528,23.984 179.584,23.856 C180.64,23.728 181.552,23.664 182.32,23.664 C184.752,23.664 186.912,24.112 188.8,25.008 C190.688,25.904 191.888,27.664 192.4,30.288 L192.4,30.288 L203.824,30.288 C203.504,27.536 202.72,25.184 201.472,23.232 C200.224,21.28 198.656,19.696 196.768,18.48 C194.88,17.264 192.768,16.384 190.432,15.84 C188.096,15.296 185.648,15.024 183.088,15.024 C180.848,15.024 178.496,15.248 176.032,15.696 C173.568,16.144 171.328,16.928 169.312,18.048 C167.296,19.168 165.632,20.64 164.32,22.464 C163.008,24.288 162.352,26.544 162.352,29.232 C162.352,31.728 162.8,33.824 163.696,35.52 C164.592,37.216 165.792,38.608 167.296,39.696 C168.8,40.784 170.496,41.648 172.384,42.288 C174.272,42.928 176.24,43.472 178.288,43.92 C180.272,44.368 182.224,44.784 184.144,45.168 C186.064,45.552 187.776,46.016 189.28,46.56 C190.784,47.104 192.016,47.824 192.976,48.72 C193.936,49.616 194.448,50.768 194.512,52.176 C194.576,53.584 194.24,54.72 193.504,55.584 C192.768,56.448 191.824,57.104 190.672,57.552 C189.52,58 188.288,58.304 186.976,58.464 C185.664,58.624 184.496,58.704 183.472,58.704 C180.528,58.704 178,58.064 175.888,56.784 C173.776,55.504 172.56,53.264 172.24,50.064 L172.24,50.064 L161.296,50.064 C161.36,53.008 161.952,55.552 163.072,57.696 C164.192,59.84 165.728,61.632 167.68,63.072 C169.632,64.512 171.936,65.584 174.592,66.288 C177.248,66.992 180.144,67.344 183.28,67.344 Z M235.6,66.48 C236.816,66.48 238,66.416 239.152,66.288 C240.304,66.16 241.488,66.032 242.704,65.904 L242.704,65.904 L242.704,57.456 C241.936,57.648 241.168,57.76 240.4,57.792 C239.632,57.824 238.864,57.84 238.096,57.84 C236.88,57.84 235.92,57.696 235.216,57.408 C234.512,57.12 233.984,56.688 233.632,56.112 C233.28,55.536 233.056,54.832 232.96,54 C232.864,53.168 232.816,52.176 232.816,51.024 L232.816,51.024 L232.816,24.528 L242.704,24.528 L242.704,16.368 L232.816,16.368 L232.816,1.488 L221.872,1.488 L221.872,16.368 L213.616,16.368 L213.616,24.528 L221.872,24.528 L221.872,53.808 C221.936,55.856 222.144,57.68 222.496,59.28 C222.848,60.88 223.52,62.208 224.512,63.264 C225.504,64.32 226.88,65.12 228.64,65.664 C230.4,66.208 232.72,66.48 235.6,66.48 Z M266.32,66 L266.32,42.384 C266.32,39.632 266.672,37.2 267.376,35.088 C268.08,32.976 269.04,31.2 270.256,29.76 C271.472,28.32 272.896,27.232 274.528,26.496 C276.16,25.76 277.904,25.392 279.76,25.392 C280.528,25.392 281.312,25.44 282.112,25.536 C282.912,25.632 283.696,25.744 284.464,25.872 L284.464,25.872 L284.464,15.312 C283.952,15.248 283.456,15.184 282.976,15.12 C282.496,15.056 281.616,15.024 280.336,15.024 C278.672,15.024 277.04,15.344 275.44,15.984 C273.84,16.624 272.384,17.472 271.072,18.528 C269.76,19.584 268.64,20.752 267.712,22.032 C266.784,23.312 266.16,24.624 265.84,25.968 L265.84,25.968 L265.648,25.968 L265.648,16.368 L255.376,16.368 L255.376,66 L266.32,66 Z M333.904,67.344 C334.352,67.344 334.896,67.312 335.536,67.248 C336.176,67.184 336.816,67.088 337.456,66.96 C338.096,66.832 338.72,66.688 339.328,66.528 C339.936,66.368 340.432,66.224 340.816,66.096 L340.816,66.096 L340.816,58.512 C340.24,58.64 339.728,58.704 339.28,58.704 L339.28,58.704 L338.128,58.704 C337.104,58.704 336.416,58.416 336.064,57.84 C335.712,57.264 335.536,56.304 335.536,54.96 L335.536,54.96 L335.536,29.424 C335.536,26.8 334.96,24.576 333.808,22.752 C332.656,20.928 331.136,19.44 329.248,18.288 C327.36,17.136 325.232,16.304 322.864,15.792 C320.496,15.28 318.096,15.024 315.664,15.024 C312.912,15.024 310.224,15.28 307.6,15.792 C304.976,16.304 302.624,17.2 300.544,18.48 C298.464,19.76 296.752,21.456 295.408,23.568 C294.064,25.68 293.296,28.336 293.104,31.536 L293.104,31.536 L304.048,31.536 C304.304,28.848 305.424,26.864 307.408,25.584 C309.392,24.304 311.92,23.664 314.992,23.664 C316.08,23.664 317.232,23.744 318.448,23.904 C319.664,24.064 320.768,24.384 321.76,24.864 C322.752,25.344 323.584,26.032 324.256,26.928 C324.928,27.824 325.264,28.976 325.264,30.384 C325.264,31.984 324.864,33.184 324.064,33.984 C323.264,34.784 322.176,35.376 320.8,35.76 C319.424,36.144 317.84,36.416 316.048,36.576 C314.256,36.736 312.368,37.008 310.384,37.392 C308.08,37.648 305.792,38.016 303.52,38.496 C301.248,38.976 299.2,39.76 297.376,40.848 C295.552,41.936 294.08,43.44 292.96,45.36 C291.84,47.28 291.28,49.776 291.28,52.848 C291.28,55.28 291.744,57.408 292.672,59.232 C293.6,61.056 294.848,62.56 296.416,63.744 C297.984,64.928 299.792,65.824 301.84,66.432 C303.888,67.04 306.032,67.344 308.272,67.344 C311.216,67.344 314.272,66.864 317.44,65.904 C320.608,64.944 323.28,63.408 325.456,61.296 C325.904,63.536 326.864,65.104 328.336,66 C329.808,66.896 331.664,67.344 333.904,67.344 Z M312.304,58.704 C311.344,58.704 310.272,58.608 309.088,58.416 C307.904,58.224 306.816,57.888 305.824,57.408 C304.832,56.928 303.984,56.272 303.28,55.44 C302.576,54.608 302.224,53.584 302.224,52.368 C302.224,50.96 302.464,49.76 302.944,48.768 C303.424,47.776 304.08,46.976 304.912,46.368 C305.744,45.76 306.704,45.28 307.792,44.928 C308.88,44.576 310,44.304 311.152,44.112 C313.584,43.664 316.016,43.328 318.448,43.104 C320.88,42.88 322.928,42.224 324.592,41.136 L324.592,41.136 L324.592,49.296 C324.592,51.024 324.176,52.48 323.344,53.664 C322.512,54.848 321.472,55.824 320.224,56.592 C318.976,57.36 317.648,57.904 316.24,58.224 C314.832,58.544 313.52,58.704 312.304,58.704 Z" stroke="#262626" fill-rule="nonzero" stroke-width="1" fill="none"></path>
</svg>
