<?xml version="1.0" encoding="utf-8"?>
<!DOCTYPE svg PUBLIC "-//W3C//DTD SVG 1.1//EN" "http://www.w3.org/Graphics/SVG/1.1/DTD/svg11.dtd">
<svg version="1.1" xmlns="http://www.w3.org/2000/svg" xmlns:xlink="http://www.w3.org/1999/xlink" x="0px" y="0px" viewBox="0 0 100 100" xml:space="preserve" preserveAspectRatio="xMinYMin meet">
<path d="M96.521,2.774H26.788c-0.842,0-1.524,0.683-1.524,1.525v6.091H13.956c-0.439,0-0.858,0.19-1.147,0.521
	c-0.289,0.332-0.42,0.771-0.363,1.207l0.592,4.376H2.63c-0.478,0-0.932,0.226-1.22,0.609c-0.288,0.383-0.378,0.879-0.243,1.342
	l23.198,79.53c0.194,0.667,0.802,1.099,1.465,1.099c0.141,0,70.69,0.001,70.69,0.001c0.842,0,1.525-0.68,1.525-1.525V4.3
	C98.045,3.457,97.362,2.774,96.521,2.774z M25.264,13.44v70.634L15.703,13.44H25.264L25.264,13.44z M13.45,19.543l7.611,56.215
	L4.662,19.543H13.45z M94.996,96.025H28.312V5.824h66.685V96.025z M54.985,17.866h-24.24v-6.861h24.239L54.985,17.866L54.985,17.866
	z M92.715,17.866H68.476v-6.861h24.238L92.715,17.866L92.715,17.866z M56.549,14.436c0-2.819,2.286-5.107,5.105-5.107
	c2.82,0,5.108,2.287,5.108,5.107c0,2.821-2.289,5.107-5.108,5.107C58.834,19.543,56.549,17.256,56.549,14.436z M89.121,51.611
	H68.476V28.437H89.12L89.121,51.611L89.121,51.611z M58.605,31.843H33.223v-2.542h25.382V31.843z M33.223,39.057h25.382v2.542
	H33.223V39.057z M33.509,49.035h25.382v2.541H33.509V49.035z M33.223,59.087h55.898v2.541H33.223V59.087z M33.223,69.121h55.898
	v2.541H33.223V69.121z M33.223,79.03h55.898v2.542H33.223V79.03z"/>
</svg>
