<svg width="102px" height="49px" viewBox="0 0 102 49" version="1.1" xmlns="http://www.w3.org/2000/svg" xmlns:xlink="http://www.w3.org/1999/xlink">
    <title>Shape</title>
    <g id="Page-1" stroke="none" stroke-width="1" fill="none" fill-rule="evenodd">
        <path d="M23.4034335,47.7811159 C26.9513591,47.7811159 30.1130186,47.1945637 32.888412,46.0214592 C35.6638054,44.8483548 38.0100143,43.2317597 39.9270386,41.1716738 C41.8440629,39.111588 43.3032904,36.6509299 44.304721,33.7896996 C45.3061516,30.9284692 45.806867,27.7811159 45.806867,24.3476395 C45.806867,20.9713877 45.3061516,17.8526466 44.304721,14.9914163 C43.3032904,12.130186 41.8440629,9.6695279 39.9270386,7.60944206 C38.0100143,5.54935622 35.6638054,3.93276109 32.888412,2.75965665 C30.1130186,1.58655222 26.9513591,1 23.4034335,1 C19.8555079,1 16.6938484,1.58655222 13.9184549,2.75965665 C11.1430615,3.93276109 8.79685265,5.54935622 6.87982833,7.60944206 C4.96280401,9.6695279 3.50357654,12.130186 2.50214592,14.9914163 C1.50071531,17.8526466 1,20.9713877 1,24.3476395 C1,27.7811159 1.50071531,30.9284692 2.50214592,33.7896996 C3.50357654,36.6509299 4.96280401,39.111588 6.87982833,41.1716738 C8.79685265,43.2317597 11.1430615,44.8483548 13.9184549,46.0214592 C16.6938484,47.1945637 19.8555079,47.7811159 23.4034335,47.7811159 Z M23.4034335,40.055794 C21.2288984,40.055794 19.3404864,39.5979971 17.7381974,38.6824034 C16.1359084,37.7668097 14.8197425,36.565093 13.7896996,35.0772532 C12.7596567,33.5894134 12.0014306,31.9155937 11.5150215,30.055794 C11.0286123,28.1959943 10.7854077,26.2932761 10.7854077,24.3476395 C10.7854077,22.4592275 11.0286123,20.5708155 11.5150215,18.6824034 C12.0014306,16.7939914 12.7596567,15.1201717 13.7896996,13.6609442 C14.8197425,12.2017167 16.1359084,11.0143062 17.7381974,10.0987124 C19.3404864,9.18311874 21.2288984,8.72532189 23.4034335,8.72532189 C25.5779685,8.72532189 27.4663805,9.18311874 29.0686695,10.0987124 C30.6709585,11.0143062 31.9871245,12.2017167 33.0171674,13.6609442 C34.0472103,15.1201717 34.8054363,16.7939914 35.2918455,18.6824034 C35.7782546,20.5708155 36.0214592,22.4592275 36.0214592,24.3476395 C36.0214592,26.2932761 35.7782546,28.1959943 35.2918455,30.055794 C34.8054363,31.9155937 34.0472103,33.5894134 33.0171674,35.0772532 C31.9871245,36.565093 30.6709585,37.7668097 29.0686695,38.6824034 C27.4663805,39.5979971 25.5779685,40.055794 23.4034335,40.055794 Z M78.5965665,47.7811159 C82.1444921,47.7811159 85.3061516,47.1945637 88.0815451,46.0214592 C90.8569385,44.8483548 93.2031474,43.2317597 95.1201717,41.1716738 C97.037196,39.111588 98.4964235,36.6509299 99.4978541,33.7896996 C100.499285,30.9284692 101,27.7811159 101,24.3476395 C101,20.9713877 100.499285,17.8526466 99.4978541,14.9914163 C98.4964235,12.130186 97.037196,9.6695279 95.1201717,7.60944206 C93.2031474,5.54935622 90.8569385,3.93276109 88.0815451,2.75965665 C85.3061516,1.58655222 82.1444921,1 78.5965665,1 C75.0486409,1 71.8869814,1.58655222 69.111588,2.75965665 C66.3361946,3.93276109 63.9899857,5.54935622 62.0729614,7.60944206 C60.1559371,9.6695279 58.6967096,12.130186 57.695279,14.9914163 C56.6938484,17.8526466 56.193133,20.9713877 56.193133,24.3476395 C56.193133,27.7811159 56.6938484,30.9284692 57.695279,33.7896996 C58.6967096,36.6509299 60.1559371,39.111588 62.0729614,41.1716738 C63.9899857,43.2317597 66.3361946,44.8483548 69.111588,46.0214592 C71.8869814,47.1945637 75.0486409,47.7811159 78.5965665,47.7811159 Z M78.5965665,40.055794 C76.4220315,40.055794 74.5336195,39.5979971 72.9313305,38.6824034 C71.3290415,37.7668097 70.0128755,36.565093 68.9828326,35.0772532 C67.9527897,33.5894134 67.1945637,31.9155937 66.7081545,30.055794 C66.2217454,28.1959943 65.9785408,26.2932761 65.9785408,24.3476395 C65.9785408,22.4592275 66.2217454,20.5708155 66.7081545,18.6824034 C67.1945637,16.7939914 67.9527897,15.1201717 68.9828326,13.6609442 C70.0128755,12.2017167 71.3290415,11.0143062 72.9313305,10.0987124 C74.5336195,9.18311874 76.4220315,8.72532189 78.5965665,8.72532189 C80.7711016,8.72532189 82.6595136,9.18311874 84.2618026,10.0987124 C85.8640916,11.0143062 87.1802575,12.2017167 88.2103004,13.6609442 C89.2403433,15.1201717 89.9985694,16.7939914 90.4849785,18.6824034 C90.9713877,20.5708155 91.2145923,22.4592275 91.2145923,24.3476395 C91.2145923,26.2932761 90.9713877,28.1959943 90.4849785,30.055794 C89.9985694,31.9155937 89.2403433,33.5894134 88.2103004,35.0772532 C87.1802575,36.565093 85.8640916,37.7668097 84.2618026,38.6824034 C82.6595136,39.5979971 80.7711016,40.055794 78.5965665,40.055794 Z" id="Shape" stroke="#262626"></path>
    </g>
</svg>
