<svg width="112px" height="176px" viewBox="0 0 112 176" version="1.1" xmlns="http://www.w3.org/2000/svg" xmlns:xlink="http://www.w3.org/1999/xlink">

    <g id="Page-1" stroke="none" stroke-width="1" fill="none" fill-rule="evenodd">
        <path d="M56,0 C86.927946,0 112,25.1659348 112,56.2096885 C112,87.2534423 82.6131247,140.416633 56,176 C30.795625,141.887745 0,87.2534423 0,56.2096885 C0,25.1659348 25.072054,0 56,0 Z M66.2439024,28 L32,28 L32,111 L53.5121951,111 L53.5121951,83.4801061 L66.2439024,83.4801061 C75.5365854,83.4801061 82.652439,81.0583554 87.5914634,76.2148541 C92.5304878,71.3713528 95,64.5464191 95,55.7400531 C95,46.933687 92.5304878,40.1087533 87.5914634,35.265252 C82.7553354,30.5226569 75.8321345,28.1019574 66.8218607,28.0031533 L66.2439024,28 Z M60.6463415,45.3925729 C68.5487805,45.3925729 72.5,48.841733 72.5,55.7400531 C72.5,62.6383731 68.5487805,66.0875332 60.6463415,66.0875332 L53.5121951,66.0875332 L53.5121951,45.3925729 L60.6463415,45.3925729 Z" id="Combined-Shape" fill="#4673EA" fill-rule="nonzero"></path>
    </g>
</svg>