<svg viewBox="0 0 143 134" version="1.1" xmlns="http://www.w3.org/2000/svg" preserveAspectRatio="xMinYMin meet">
  <path d="M88.6589911,74.3543121 C95.5679647,67.2301552 99.4440117,55.46614 100.944092,41.0668157 C103.092091,18.5743054 89.3011799,0 70.4704168,0 C51.6396444,0 37.5502482,19.2218213 39.9966674,41.6700129 C41.7883829,56.9457794 45.7048118,68.4881856 52.7315416,75.1906744 C53.6704868,80.1066825 54.086679,87.705389 49.5760956,91.6118708 C41.6132039,98.5081975 37.7378299,100.698872 28.2792057,103.032465 C2.24905708,109.45444 4.2257661,123.385291 0,133.881186 L143,134 C138.099301,122.88563 140.505823,109.103121 114.639739,103.594094 C102.973739,101.109448 100.190357,98.9239959 91.0701837,91.4994847 C85.6809512,87.1122841 86.9277492,78.3595932 88.6589911,74.3543121 Z" fill="#CCCCCC"></path>
</svg>