<svg width="405px" height="406px" viewBox="0 0 405 406" version="1.1" xmlns="http://www.w3.org/2000/svg" >
    <path d="M396,342 C406,354 407,364 399,374 L375,398 C363,408 351,408 340,398 L243,300 C218,315 191,322 163,322 C119,322 81,306 49,273 C16,241 -3.33329808e-09,203 -3.33329808e-09,159 C-3.33329808e-09,115 16,78 46,47 C77,16 114,1.13686838e-13 158,1.13686838e-13 C202,1.13686838e-13 240,16 273,49 C305,81 322,119 322,163 C322,193 314,221 298,246 L396,342 Z M48,159 C48,189 60,216 83,239 C106,262 133,274 163,274 C193,274 219,263 240,241 C262,220 273,194 273,163 C273,133 261,107 238,84 C215,61 188,49 158,49 C128,49 102,60 81,82 C59,103 48,129 48,159 Z" fill="#fff" fill-rule="nonzero"></path>
</svg>