<svg xmlns="http://www.w3.org/2000/svg" viewBox="0 0 18 18" preserveAspectRatio="xMidYMid meet">
    <path fill="inherit" d="M12.5,11 L11.7167,11 L11.4365352,10.7361349 C12.4170955,9.59548313 13,8.11463694 13,6.50371641 C13,2.91166381 10.1,0 6.50371641,0 C2.91166381,0 0,2.91166381 0,6.5 C0,10.095769 2.91166381,13 6.5,13 C8.11463694,13 9.59548313,12.4170955 10.7361349,11.4365352 L11,11.7166953 L11,12.5 L16,17.5 L17.5,16 L12.5071469,11 Z M6.5,11 C4,11 2,9 2,6.50371641 C2,4.01229274 4.01229274,2 6.5,2 C9,2 11,4 11,6.50371641 C11,9 9,11 6.50371641,11 Z" ></path>
</svg>
