<svg viewBox="0 0 352 384" version="1.1" xmlns="http://www.w3.org/2000/svg" fill="inherit">
    <path d="M261,64 L261,35 C261,16 247,0 227,0 L125,0 C106,0 91,16 91,35 L91,64 L0,64 L0,96 L9,96 C9,96 15,97 17,99 C20,102 21,108 21,108 L40,350 C42,380 42,384 76,384 L276,384 C310,384 310,380 312,350 L331,109 C331,109 332,102 335,100 C337,97 343,96 343,96 L352,96 L352,64 L261,64 Z M112,35 C112,25 120,20 130,20 L221,20 C231,20 240,26 240,35 L240,64 L112,64 L112,35 Z M104,320 L93,128 L114,128 L124,320 L104,320 Z M187,320 L165,320 L165,128 L187,128 L187,320 Z M249,320 L228,320 L239,128 L259,128 L249,320 Z"></path>
</svg>
