<svg viewBox="0 0 1024 1024" xmlns="http://www.w3.org/2000/svg">
    <path d="M291.743 325.31c28.317 0 53.551 4.686 75.702 14.045 22.151 9.364 40.88 22.265 56.176 38.709 15.3 16.444 26.95 36.08 34.943 58.92 7.992 22.834 11.988 47.724 11.988 74.675 0 27.404-3.996 52.523-11.988 75.358-7.993 22.84-19.642 42.476-34.943 58.92-15.296 16.443-34.025 29.344-56.176 38.703-22.15 9.365-47.385 14.05-75.702 14.05-28.318 0-53.552-4.685-75.703-14.05-22.15-9.359-40.88-22.26-56.175-38.704-15.302-16.443-26.951-36.08-34.943-58.92-7.993-22.834-11.989-47.953-11.989-75.357 0-26.951 3.996-51.84 11.989-74.675 7.992-22.84 19.641-42.476 34.943-58.92 15.295-16.444 34.024-29.345 56.175-38.71 22.151-9.358 47.385-14.043 75.703-14.043zm0 61.66c-17.357 0-32.429 3.656-45.215 10.96-12.792 7.309-23.294 16.788-31.516 28.432-8.221 11.65-14.273 25.005-18.154 40.076-3.882 15.077-5.822 30.149-5.822 45.22 0 15.526 1.94 30.712 5.822 45.56 3.881 14.842 9.933 28.202 18.154 40.076 8.222 11.874 18.724 21.468 31.516 28.771 12.786 7.309 27.858 10.966 45.215 10.966 17.356 0 32.428-3.657 45.214-10.966 12.792-7.303 23.294-16.897 31.516-28.771 8.222-11.874 14.273-25.234 18.155-40.076 3.881-14.848 5.822-30.034 5.822-45.56 0-15.071-1.941-30.143-5.822-45.22-3.882-15.071-9.933-28.426-18.155-40.076-8.222-11.644-18.724-21.123-31.516-28.432-12.786-7.304-27.858-10.96-45.214-10.96z" fill="#fff"/><path d="M291.743 314.377c29.913 0 56.558 5.019 79.96 14.908 23.633 9.993 43.597 23.785 59.926 41.328 16.302 17.52 28.739 38.425 37.256 62.757 8.38 23.944 12.6 50.037 12.6 78.289 0 28.716-4.225 55.038-12.6 78.971-8.517 24.327-20.954 45.237-37.256 62.752-16.329 17.548-36.293 31.34-59.925 41.333-23.403 9.89-50.048 14.908-79.961 14.908-29.914 0-56.559-5.018-79.961-14.908-23.633-9.993-43.597-23.785-59.926-41.333-16.302-17.515-28.738-38.425-37.255-62.752C106.226 566.697 102 540.375 102 511.659c0-28.252 4.226-54.345 12.6-78.289 8.518-24.332 20.954-45.236 37.256-62.757 16.329-17.543 36.293-31.335 59.926-41.328 23.402-9.89 50.047-14.908 79.96-14.908zm0 21.867c-26.721 0-50.545 4.346-71.444 13.18-20.67 8.736-38.158 20.746-52.431 36.086-14.3 15.366-25.158 33.74-32.625 55.082-7.604 21.73-11.376 45.422-11.376 71.067 0 26.086 3.766 50.009 11.376 71.744 7.467 21.347 18.324 39.715 32.625 55.082 14.273 15.34 31.761 27.35 52.43 36.086 20.9 8.834 44.724 13.185 71.445 13.185 26.72 0 50.544-4.351 71.444-13.185 20.669-8.736 38.157-20.746 52.43-36.086 14.301-15.367 25.158-33.735 32.625-55.082 7.61-21.735 11.377-45.658 11.377-71.744 0-25.645-3.772-49.337-11.377-71.067-7.467-21.342-18.324-39.716-32.625-55.082-14.273-15.34-31.761-27.35-52.43-36.086-20.9-8.834-44.723-13.18-71.444-13.18zm0 39.792c19.45 0 36.31 4.215 50.643 12.404 14.213 8.123 25.88 18.668 35.02 31.619 8.96 12.688 15.58 27.23 19.81 43.657 4.117 15.979 6.167 31.958 6.167 47.943 0 16.47-2.061 32.575-6.177 48.325-4.22 16.127-10.813 30.63-19.746 43.531-9.151 13.224-20.839 23.911-35.074 32.046-14.334 8.189-31.193 12.403-50.643 12.403s-36.31-4.214-50.644-12.403c-14.235-8.135-25.923-18.822-35.074-32.046-8.932-12.901-15.525-27.404-19.745-43.531-4.117-15.75-6.178-31.854-6.178-48.325 0-15.985 2.05-31.964 6.167-47.943 4.23-16.428 10.851-30.969 19.81-43.657 9.141-12.95 20.807-23.496 35.02-31.62 14.334-8.188 31.193-12.403 50.644-12.403zm0 21.867c-15.263 0-28.547 3.094-39.792 9.523-11.36 6.488-20.703 14.896-28.006 25.245-7.484 10.6-12.967 22.774-16.498 36.495-3.652 14.164-5.478 28.328-5.478 42.493 0 14.585 1.82 28.847 5.467 42.793 3.548 13.557 9.058 25.77 16.564 36.62 7.292 10.53 16.613 19.025 27.95 25.503 11.246 6.429 24.53 9.523 39.793 9.523 15.263 0 28.547-3.094 39.792-9.523 11.337-6.478 20.658-14.973 27.95-25.502 7.512-10.852 13.017-23.064 16.565-36.621 3.646-13.946 5.466-28.208 5.466-42.793 0-14.165-1.826-28.329-5.477-42.493-3.532-13.721-9.015-25.896-16.499-36.495-7.303-10.349-16.646-18.757-28.005-25.245-11.245-6.43-24.53-9.523-39.792-9.523z"/><path d="M732.258 325.31c28.317 0 53.551 4.686 75.702 14.045 22.151 9.364 40.88 22.265 56.176 38.709 15.301 16.444 26.95 36.08 34.943 58.92 7.992 22.834 11.988 47.724 11.988 74.675 0 27.404-3.996 52.523-11.988 75.358-7.993 22.84-19.642 42.476-34.943 58.92-15.296 16.443-34.025 29.344-56.176 38.703-22.15 9.365-47.385 14.05-75.702 14.05s-53.552-4.685-75.703-14.05c-22.15-9.359-40.88-22.26-56.175-38.704-15.301-16.443-26.95-36.08-34.943-58.92-7.992-22.834-11.988-47.953-11.988-75.357 0-26.951 3.996-51.84 11.988-74.675 7.992-22.84 19.642-42.476 34.943-58.92 15.296-16.444 34.024-29.345 56.175-38.71 22.151-9.358 47.386-14.043 75.703-14.043zm0 61.66c-17.357 0-32.428 3.656-45.215 10.96-12.792 7.309-23.293 16.788-31.515 28.432-8.222 11.65-14.274 25.005-18.155 40.076-3.881 15.077-5.822 30.149-5.822 45.22 0 15.526 1.94 30.712 5.822 45.56 3.881 14.842 9.933 28.202 18.155 40.076 8.222 11.874 18.723 21.468 31.515 28.771 12.787 7.309 27.858 10.966 45.215 10.966 17.357 0 32.428-3.657 45.215-10.966 12.792-7.303 23.293-16.897 31.515-28.771 8.222-11.874 14.274-25.234 18.155-40.076 3.881-14.848 5.822-30.034 5.822-45.56 0-15.071-1.94-30.143-5.822-45.22-3.881-15.071-9.933-28.426-18.155-40.076-8.222-11.644-18.723-21.123-31.515-28.432-12.787-7.304-27.858-10.96-45.215-10.96z" fill="#fff"/><path d="M732.258 314.377c29.913 0 56.558 5.019 79.96 14.908 23.633 9.993 43.598 23.785 59.926 41.328 16.302 17.52 28.739 38.425 37.256 62.757 8.375 23.944 12.6 50.037 12.6 78.289 0 28.716-4.225 55.038-12.6 78.971-8.517 24.327-20.954 45.237-37.256 62.752-16.328 17.548-36.293 31.34-59.925 41.333-23.403 9.89-50.048 14.908-79.961 14.908-29.914 0-56.558-5.018-79.961-14.908-23.633-9.993-43.597-23.785-59.926-41.333-16.301-17.515-28.738-38.425-37.255-62.752-8.375-23.933-12.6-50.255-12.6-78.971 0-28.252 4.22-54.345 12.6-78.289 8.517-24.332 20.954-45.236 37.255-62.757 16.33-17.543 36.293-31.335 59.926-41.328 23.403-9.89 50.047-14.908 79.96-14.908zm0 21.867c-26.721 0-50.545 4.346-71.444 13.18-20.67 8.736-38.157 20.746-52.43 36.086-14.302 15.366-25.159 33.74-32.626 55.082-7.604 21.73-11.376 45.422-11.376 71.067 0 26.086 3.766 50.009 11.376 71.744 7.467 21.347 18.324 39.715 32.625 55.082 14.274 15.34 31.761 27.35 52.43 36.086 20.9 8.834 44.724 13.185 71.445 13.185 26.72 0 50.545-4.351 71.444-13.185 20.67-8.736 38.157-20.746 52.43-36.086 14.301-15.367 25.158-33.735 32.626-55.082 7.61-21.735 11.376-45.658 11.376-71.744 0-25.645-3.772-49.337-11.376-71.067-7.468-21.342-18.325-39.716-32.625-55.082-14.274-15.34-31.762-27.35-52.431-36.086-20.9-8.834-44.723-13.18-71.444-13.18zm0 39.792c19.45 0 36.31 4.215 50.643 12.404 14.213 8.123 25.88 18.668 35.02 31.619 8.96 12.688 15.58 27.23 19.81 43.657 4.117 15.979 6.167 31.958 6.167 47.943 0 16.47-2.06 32.575-6.177 48.325-4.22 16.127-10.813 30.63-19.746 43.531-9.151 13.224-20.839 23.911-35.074 32.046-14.334 8.189-31.193 12.403-50.643 12.403s-36.31-4.214-50.643-12.403c-14.236-8.135-25.923-18.822-35.075-32.046-8.932-12.901-15.525-27.404-19.745-43.531-4.117-15.75-6.177-31.854-6.177-48.325 0-15.985 2.05-31.964 6.166-47.943 4.231-16.428 10.851-30.969 19.811-43.657 9.14-12.95 20.806-23.496 35.02-31.62 14.333-8.188 31.192-12.403 50.643-12.403zm0 21.867c-15.263 0-28.547 3.094-39.792 9.523-11.36 6.488-20.702 14.896-28.006 25.245-7.484 10.6-12.967 22.774-16.498 36.495-3.652 14.164-5.478 28.328-5.478 42.493 0 14.585 1.82 28.847 5.467 42.793 3.548 13.557 9.053 25.77 16.564 36.62 7.292 10.53 16.613 19.025 27.951 25.503 11.245 6.429 24.529 9.523 39.792 9.523 15.263 0 28.547-3.094 39.792-9.523 11.338-6.478 20.658-14.973 27.95-25.502 7.507-10.852 13.017-23.064 16.565-36.621 3.646-13.946 5.467-28.208 5.467-42.793 0-14.165-1.826-28.329-5.478-42.493-3.532-13.721-9.015-25.896-16.499-36.495-7.303-10.349-16.646-18.757-28.005-25.245-11.245-6.43-24.53-9.523-39.792-9.523z"/>
</svg>
