<svg viewBox="0 0 820 820" xmlns="http://www.w3.org/2000/svg">
    <style>
        path { stroke: #000; fill: #000 }
        @media (prefers-color-scheme: dark) {
            path { stroke: #fff; fill: #fff }
        }
    </style>
    <path d="M189.743 223.311c28.317 0 53.551 4.685 75.702 14.044 22.151 9.365 40.88 22.266 56.176 38.71 15.3 16.444 26.95 36.08 34.943 58.92 7.992 22.834 11.988 47.724 11.988 74.674 0 27.405-3.996 52.524-11.988 75.358-7.993 22.84-19.642 42.476-34.943 58.92-15.296 16.444-34.025 29.345-56.176 38.704-22.15 9.364-47.385 14.05-75.702 14.05-28.318 0-53.552-4.686-75.703-14.05-22.15-9.359-40.88-22.26-56.175-38.704-15.302-16.444-26.951-36.08-34.943-58.92-7.993-22.834-11.989-47.953-11.989-75.358 0-26.95 3.996-51.84 11.989-74.674 7.992-22.84 19.641-42.476 34.943-58.92 15.295-16.444 34.024-29.345 56.175-38.71 22.151-9.359 47.385-14.044 75.703-14.044zm0 61.659c-17.357 0-32.429 3.657-45.215 10.96-12.792 7.31-23.294 16.789-31.516 28.433-8.221 11.65-14.273 25.004-18.154 40.076-3.882 15.077-5.822 30.149-5.822 45.22 0 15.526 1.94 30.712 5.822 45.56 3.881 14.841 9.933 28.202 18.154 40.076 8.222 11.873 18.724 21.467 31.516 28.77 12.786 7.31 27.858 10.967 45.215 10.967 17.356 0 32.428-3.657 45.214-10.966 12.792-7.304 23.294-16.898 31.516-28.771 8.222-11.874 14.273-25.235 18.155-40.077 3.881-14.847 5.822-30.033 5.822-45.559 0-15.071-1.941-30.143-5.822-45.22-3.882-15.072-9.933-28.427-18.155-40.076-8.222-11.644-18.724-21.123-31.516-28.432-12.786-7.304-27.858-10.961-45.214-10.961z" fill="#fff"/><path d="M189.743 212.378c29.913 0 56.558 5.018 79.96 14.908 23.633 9.993 43.597 23.785 59.926 41.328 16.302 17.52 28.739 38.425 37.256 62.757 8.38 23.944 12.6 50.036 12.6 78.288 0 28.717-4.225 55.039-12.6 78.972-8.517 24.326-20.954 45.236-37.256 62.752-16.329 17.548-36.293 31.34-59.925 41.333-23.403 9.89-50.048 14.908-79.961 14.908-29.914 0-56.559-5.019-79.961-14.908-23.633-9.993-43.597-23.785-59.926-41.333-16.302-17.516-28.738-38.426-37.255-62.752C4.226 464.698 0 438.376 0 409.659c0-28.252 4.226-54.344 12.6-78.288 8.518-24.332 20.954-45.237 37.256-62.757 16.329-17.543 36.293-31.335 59.926-41.328 23.402-9.89 50.047-14.908 79.96-14.908zm0 21.867c-26.721 0-50.545 4.346-71.444 13.18-20.67 8.736-38.158 20.746-52.431 36.085-14.3 15.367-25.158 33.74-32.625 55.083-7.604 21.73-11.376 45.422-11.376 71.066 0 26.087 3.766 50.01 11.376 71.745 7.467 21.347 18.324 39.715 32.625 55.082 14.273 15.34 31.761 27.35 52.43 36.085 20.9 8.835 44.724 13.186 71.445 13.186 26.72 0 50.544-4.351 71.444-13.186 20.669-8.735 38.157-20.746 52.43-36.085 14.301-15.367 25.158-33.735 32.625-55.082 7.61-21.736 11.377-45.658 11.377-71.745 0-25.644-3.772-49.336-11.377-71.066-7.467-21.342-18.324-39.716-32.625-55.083-14.273-15.34-31.761-27.35-52.43-36.085-20.9-8.834-44.723-13.18-71.444-13.18zm0 39.792c19.45 0 36.31 4.214 50.643 12.404 14.213 8.123 25.88 18.668 35.02 31.619 8.96 12.688 15.58 27.23 19.81 43.657 4.117 15.979 6.167 31.958 6.167 47.942 0 16.471-2.061 32.576-6.177 48.326-4.22 16.126-10.813 30.63-19.746 43.53-9.151 13.225-20.839 23.912-35.074 32.046-14.334 8.19-31.193 12.404-50.643 12.404s-36.31-4.215-50.644-12.404c-14.235-8.134-25.923-18.821-35.074-32.045-8.932-12.902-15.525-27.405-19.745-43.531-4.117-15.75-6.178-31.855-6.178-48.326 0-15.984 2.05-31.963 6.167-47.942 4.23-16.428 10.851-30.97 19.81-43.657 9.141-12.95 20.807-23.496 35.02-31.62 14.334-8.189 31.193-12.403 50.644-12.403zm0 21.866c-15.263 0-28.547 3.094-39.792 9.523-11.36 6.49-20.703 14.897-28.006 25.245-7.484 10.6-12.967 22.774-16.498 36.496-3.652 14.164-5.478 28.328-5.478 42.492 0 14.585 1.82 28.848 5.467 42.793 3.548 13.558 9.058 25.77 16.564 36.622 7.292 10.528 16.613 19.024 27.95 25.502 11.246 6.428 24.53 9.523 39.793 9.523 15.263 0 28.547-3.095 39.792-9.523 11.337-6.478 20.658-14.974 27.95-25.502 7.512-10.852 13.017-23.064 16.565-36.622 3.646-13.945 5.466-28.208 5.466-42.793 0-14.164-1.826-28.328-5.477-42.492-3.532-13.722-9.015-25.896-16.499-36.496-7.303-10.348-16.646-18.756-28.005-25.245-11.245-6.429-24.53-9.523-39.792-9.523z"/><path d="M630.258 223.311c28.317 0 53.551 4.685 75.702 14.044 22.151 9.365 40.88 22.266 56.176 38.71 15.301 16.444 26.95 36.08 34.943 58.92 7.992 22.834 11.988 47.724 11.988 74.674 0 27.405-3.996 52.524-11.988 75.358-7.993 22.84-19.642 42.476-34.943 58.92-15.296 16.444-34.025 29.345-56.176 38.704-22.15 9.364-47.385 14.05-75.702 14.05s-53.552-4.686-75.703-14.05c-22.15-9.359-40.88-22.26-56.175-38.704-15.301-16.444-26.95-36.08-34.943-58.92-7.992-22.834-11.988-47.953-11.988-75.358 0-26.95 3.996-51.84 11.988-74.674 7.992-22.84 19.642-42.476 34.943-58.92 15.296-16.444 34.024-29.345 56.175-38.71 22.151-9.359 47.386-14.044 75.703-14.044zm0 61.659c-17.357 0-32.428 3.657-45.215 10.96-12.792 7.31-23.293 16.789-31.515 28.433-8.222 11.65-14.274 25.004-18.155 40.076-3.881 15.077-5.822 30.149-5.822 45.22 0 15.526 1.94 30.712 5.822 45.56 3.881 14.841 9.933 28.202 18.155 40.076 8.222 11.873 18.723 21.467 31.515 28.77 12.787 7.31 27.858 10.967 45.215 10.967 17.357 0 32.428-3.657 45.215-10.966 12.792-7.304 23.293-16.898 31.515-28.771 8.222-11.874 14.274-25.235 18.155-40.077 3.881-14.847 5.822-30.033 5.822-45.559 0-15.071-1.94-30.143-5.822-45.22-3.881-15.072-9.933-28.427-18.155-40.076-8.222-11.644-18.723-21.123-31.515-28.432-12.787-7.304-27.858-10.961-45.215-10.961z" fill="#fff"/><path d="M630.258 212.378c29.913 0 56.558 5.018 79.96 14.908 23.633 9.993 43.598 23.785 59.926 41.328 16.302 17.52 28.739 38.425 37.256 62.757 8.375 23.944 12.6 50.036 12.6 78.288 0 28.717-4.225 55.039-12.6 78.972-8.517 24.326-20.954 45.236-37.256 62.752-16.328 17.548-36.293 31.34-59.925 41.333-23.403 9.89-50.048 14.908-79.961 14.908-29.914 0-56.558-5.019-79.961-14.908-23.633-9.993-43.597-23.785-59.926-41.333-16.301-17.516-28.738-38.426-37.255-62.752-8.375-23.933-12.6-50.255-12.6-78.972 0-28.252 4.22-54.344 12.6-78.288 8.517-24.332 20.954-45.237 37.255-62.757 16.33-17.543 36.293-31.335 59.926-41.328 23.403-9.89 50.047-14.908 79.96-14.908zm0 21.867c-26.721 0-50.545 4.346-71.444 13.18-20.67 8.736-38.157 20.746-52.43 36.085-14.302 15.367-25.159 33.74-32.626 55.083-7.604 21.73-11.376 45.422-11.376 71.066 0 26.087 3.766 50.01 11.376 71.745 7.467 21.347 18.324 39.715 32.625 55.082 14.274 15.34 31.761 27.35 52.43 36.085 20.9 8.835 44.724 13.186 71.445 13.186 26.72 0 50.545-4.351 71.444-13.186 20.67-8.735 38.157-20.746 52.43-36.085 14.301-15.367 25.158-33.735 32.626-55.082 7.61-21.736 11.376-45.658 11.376-71.745 0-25.644-3.772-49.336-11.376-71.066-7.468-21.342-18.325-39.716-32.625-55.083-14.274-15.34-31.762-27.35-52.431-36.085-20.9-8.834-44.723-13.18-71.444-13.18zm0 39.792c19.45 0 36.31 4.214 50.643 12.404 14.213 8.123 25.88 18.668 35.02 31.619 8.96 12.688 15.58 27.23 19.81 43.657 4.117 15.979 6.167 31.958 6.167 47.942 0 16.471-2.06 32.576-6.177 48.326-4.22 16.126-10.813 30.63-19.746 43.53-9.151 13.225-20.839 23.912-35.074 32.046-14.334 8.19-31.193 12.404-50.643 12.404s-36.31-4.215-50.643-12.404c-14.236-8.134-25.923-18.821-35.075-32.045-8.932-12.902-15.525-27.405-19.745-43.531-4.117-15.75-6.177-31.855-6.177-48.326 0-15.984 2.05-31.963 6.166-47.942 4.231-16.428 10.851-30.97 19.811-43.657 9.14-12.95 20.806-23.496 35.02-31.62 14.333-8.189 31.192-12.403 50.643-12.403zm0 21.866c-15.263 0-28.547 3.094-39.792 9.523-11.36 6.49-20.702 14.897-28.006 25.245-7.484 10.6-12.967 22.774-16.498 36.496-3.652 14.164-5.478 28.328-5.478 42.492 0 14.585 1.82 28.848 5.467 42.793 3.548 13.558 9.053 25.77 16.564 36.622 7.292 10.528 16.613 19.024 27.951 25.502 11.245 6.428 24.529 9.523 39.792 9.523 15.263 0 28.547-3.095 39.792-9.523 11.338-6.478 20.658-14.974 27.95-25.502 7.507-10.852 13.017-23.064 16.565-36.622 3.646-13.945 5.467-28.208 5.467-42.793 0-14.164-1.826-28.328-5.478-42.492-3.532-13.722-9.015-25.896-16.499-36.496-7.303-10.348-16.646-18.756-28.005-25.245-11.245-6.429-24.53-9.523-39.792-9.523z"/>
</svg>
