<svg viewBox="0 0 150 150" xmlns="http://www.w3.org/2000/svg">
    <style>
    path { stroke: #000; fill: #000 }
    @media (prefers-color-scheme: dark) {
        path { stroke: #fff; fill: #fff }
    }
    </style>
    <path d="M34.709 39.914c5.18 0 9.796.857 13.848 2.57 4.052 1.712 7.478 4.072 10.276 7.08 2.8 3.008 4.93 6.6 6.392 10.778 1.462 4.177 2.193 8.73 2.193 13.66 0 5.013-.731 9.608-2.193 13.785-1.462 4.178-3.593 7.77-6.392 10.778-2.798 3.008-6.224 5.368-10.276 7.08-4.052 1.713-8.668 2.57-13.848 2.57-5.18 0-9.796-.857-13.848-2.57-4.052-1.712-7.478-4.072-10.276-7.08-2.8-3.008-4.93-6.6-6.392-10.778C2.731 83.61 2 79.015 2 74.002c0-4.93.731-9.483 2.193-13.66 1.462-4.178 3.593-7.77 6.392-10.778 2.798-3.008 6.224-5.368 10.276-7.08 4.052-1.713 8.668-2.57 13.848-2.57zm0 11.28c-3.175 0-5.932.668-8.271 2.004-2.34 1.337-4.261 3.07-5.765 5.201-1.504 2.13-2.61 4.574-3.321 7.331a33.044 33.044 0 00-1.065 8.272 32.8 32.8 0 001.065 8.334c.71 2.715 1.817 5.159 3.321 7.331 1.504 2.172 3.425 3.927 5.765 5.263 2.34 1.337 5.096 2.006 8.271 2.006 3.175 0 5.932-.669 8.271-2.006 2.34-1.336 4.261-3.09 5.765-5.263 1.504-2.172 2.61-4.616 3.321-7.331a32.8 32.8 0 001.065-8.334c0-2.757-.355-5.514-1.065-8.272-.71-2.757-1.817-5.2-3.32-7.33-1.505-2.131-3.426-3.865-5.766-5.202-2.34-1.336-5.096-2.005-8.271-2.005zm80.582-11.28c5.18 0 9.796.857 13.848 2.57 4.052 1.712 7.478 4.072 10.276 7.08 2.8 3.008 4.93 6.6 6.392 10.778 1.462 4.177 2.193 8.73 2.193 13.66 0 5.013-.731 9.608-2.193 13.785-1.462 4.178-3.593 7.77-6.392 10.778-2.798 3.008-6.224 5.368-10.276 7.08-4.052 1.713-8.668 2.57-13.848 2.57-5.18 0-9.796-.857-13.848-2.57-4.052-1.712-7.478-4.072-10.276-7.08-2.8-3.008-4.93-6.6-6.392-10.778-1.462-4.177-2.193-8.772-2.193-13.785 0-4.93.731-9.483 2.193-13.66 1.462-4.178 3.593-7.77 6.392-10.778 2.798-3.008 6.224-5.368 10.276-7.08 4.052-1.713 8.668-2.57 13.848-2.57zm0 11.28c-3.175 0-5.932.668-8.271 2.004-2.34 1.337-4.261 3.07-5.765 5.201-1.504 2.13-2.61 4.574-3.321 7.331a33.044 33.044 0 00-1.065 8.272 32.8 32.8 0 001.065 8.334c.71 2.715 1.817 5.159 3.32 7.331 1.505 2.172 3.426 3.927 5.766 5.263 2.34 1.337 5.096 2.006 8.271 2.006 3.175 0 5.932-.669 8.271-2.006 2.34-1.336 4.261-3.09 5.765-5.263 1.504-2.172 2.61-4.616 3.321-7.331a32.8 32.8 0 001.065-8.334c0-2.757-.355-5.514-1.065-8.272-.71-2.757-1.817-5.2-3.321-7.33-1.504-2.131-3.425-3.865-5.765-5.202-2.34-1.336-5.096-2.005-8.271-2.005z" stroke-width="4"/>
</svg>
