<svg xmlns="http://www.w3.org/2000/svg" xml:space="preserve" id="Capa_1" width="36.447px" height="36.447px" x="0px" y="0px" preserveAspectRatio="xMinYMin meet" version="1.1" viewBox="0 0 36.447 36.447"><path d="M30.224,3.948h-1.098V2.75c0-1.517-1.197-2.75-2.67-2.75c-1.474,0-2.67,1.233-2.67,2.75v1.197h-2.74V2.75 c0-1.517-1.197-2.75-2.67-2.75c-1.473,0-2.67,1.233-2.67,2.75v1.197h-2.74V2.75c0-1.517-1.197-2.75-2.67-2.75 c-1.473,0-2.67,1.233-2.67,2.75v1.197H6.224c-2.343,0-4.25,1.907-4.25,4.25v24c0,2.343,1.907,4.25,4.25,4.25h24 c2.344,0,4.25-1.907,4.25-4.25v-24C34.474,5.855,32.567,3.948,30.224,3.948z M25.286,2.75c0-0.689,0.525-1.25,1.17-1.25 c0.646,0,1.17,0.561,1.17,1.25v4.896c0,0.689-0.524,1.25-1.17,1.25c-0.645,0-1.17-0.561-1.17-1.25V2.75z M17.206,2.75 c0-0.689,0.525-1.25,1.17-1.25s1.17,0.561,1.17,1.25v4.896c0,0.689-0.525,1.25-1.17,1.25s-1.17-0.561-1.17-1.25V2.75z M9.125,2.75 c0-0.689,0.525-1.25,1.17-1.25s1.17,0.561,1.17,1.25v4.896c0,0.689-0.525,1.25-1.17,1.25s-1.17-0.561-1.17-1.25V2.75z M31.974,32.198c0,0.965-0.785,1.75-1.75,1.75h-24c-0.965,0-1.75-0.785-1.75-1.75v-22h27.5V32.198z"/><path d="M6.724 14.626H11.318999999999999V18.715H6.724zM12.857 14.626H17.453V18.715H12.857zM18.995 14.626H23.59V18.715H18.995zM25.128 14.626H29.724V18.715H25.128zM6.724 20.084H11.318999999999999V24.17H6.724zM12.857 20.084H17.453V24.17H12.857zM18.995 20.084H23.59V24.17H18.995zM25.128 20.084H29.724V24.17H25.128zM6.724 25.54H11.318999999999999V29.625999999999998H6.724zM12.857 25.54H17.453V29.625999999999998H12.857zM18.995 25.54H23.59V29.625999999999998H18.995zM25.128 25.54H29.724V29.625999999999998H25.128z"/></svg>