<svg xmlns="http://www.w3.org/2000/svg" width="30" height="30" preserveAspectRatio="xMinYMin meet" viewBox="0 0 30 30"><path id="Combined-Shape" fill="#000" d="M0,0 L30,0 L30,30 L0,30 L0,0 Z M25.7800007,19.9041033 C25.7800007,18.9932797 25.043017,18.2538476 24.1321934,18.2538476 C23.2213698,18.2538476 22.4819377,18.9932797 22.4819377,19.9041033 L22.4819377,23.6967534 L8.30051148,23.6967534 L8.30051148,19.9041033 C8.30051148,18.9932797 7.56107938,18.2538476 6.65025574,18.2538476 C5.7394321,18.2538476 5,18.9932797 5,19.9041033 L5,25.3470091 C5,26.2602812 5.7394321,26.9972648 6.65025574,26.9972648 L24.1297449,26.9972648 C25.0405686,26.9972648 25.7800007,26.2602812 25.7800007,25.3470091 L25.7800007,19.9041033 Z M14.2257621,21.3168593 C14.5489575,21.6400548 14.9700911,21.7992041 15.3912246,21.7992041 C15.8148065,21.7992041 16.23594,21.6376064 16.5591355,21.3168593 L21.5050058,16.370989 C22.1513968,15.7270465 22.1513968,14.6840065 21.5050058,14.040064 C20.8610633,13.3961215 19.8155749,13.3961215 19.1740808,14.040064 L17.0439288,16.1726645 L17.0439288,4.65025574 C17.0439288,3.7394321 16.3069451,3 15.393673,3 C14.4828494,3 13.7434173,3.7394321 13.7434173,4.65025574 L13.7434173,16.1726645 L11.6108168,14.040064 C10.9668742,13.3961215 9.92138581,13.3961215 9.27989174,14.040064 C8.63594922,14.6840065 8.63594922,15.7294949 9.27989174,16.370989 L14.2257621,21.3168593 Z"/></svg>