<svg xmlns="http://www.w3.org/2000/svg" viewBox="0 0 476 402"><path fill="inherit" d="M439,339 L439,138 C439,130 436,124 431,118 C426,113 419,110 412,110 L211,110 C203,110 196,108 191,102 C186,97 183,90 183,83 L183,65 C183,57 180,50 175,45 C170,40 163,37 156,37 L64,37 C57,37 50,40 45,45 C40,50 37,57 37,65 L37,339 C37,346 40,353 45,358 C50,364 57,366 64,366 L412,366 C419,366 426,364 431,358 C436,353 439,346 439,339 Z M476,137 L476,338 C476,355 469,370 457,383 C444,396 429,402 412,402 L64,402 C47,402 32,396 19,383 C7,370 0,355 0,338 L0,64 C0,46 7,31 19,18 C32,6 47,0 64,0 L156,0 C173,0 188,6 201,18 C213,31 220,46 220,64 L220,73 L412,73 C429,73 444,79 457,92 C469,104 476,119 476,137 Z"/></svg>