<svg xmlns="http://www.w3.org/2000/svg" viewBox="0 0 820 820"><path d="M34.709,39.914C39.889,39.914 44.505,40.771 48.557,42.483C52.609,44.196 56.035,46.556 58.833,49.564C61.632,52.572 63.763,56.164 65.225,60.342C66.687,64.519 67.418,69.072 67.418,74.002C67.418,79.015 66.687,83.61 65.225,87.787C63.763,91.965 61.632,95.557 58.833,98.565C56.035,101.573 52.609,103.933 48.557,105.645C44.505,107.358 39.889,108.215 34.709,108.215C29.529,108.215 24.913,107.358 20.861,105.645C16.809,103.933 13.383,101.573 10.585,98.565C7.786,95.557 5.655,91.965 4.193,87.787C2.731,83.61 2,79.015 2,74.002C2,69.072 2.731,64.519 4.193,60.342C5.655,56.164 7.786,52.572 10.585,49.564C13.383,46.556 16.809,44.196 20.861,42.483C24.913,40.771 29.529,39.914 34.709,39.914ZM34.709,51.193C31.534,51.193 28.777,51.862 26.438,53.198C24.098,54.535 22.177,56.269 20.673,58.399C19.169,60.53 18.062,62.973 17.352,65.73C16.642,68.488 16.287,71.245 16.287,74.002C16.287,76.842 16.642,79.62 17.352,82.336C18.062,85.051 19.169,87.495 20.673,89.667C22.177,91.839 24.098,93.594 26.438,94.93C28.777,96.267 31.534,96.936 34.709,96.936C37.884,96.936 40.641,96.267 42.98,94.93C45.32,93.594 47.241,91.839 48.745,89.667C50.249,87.495 51.356,85.051 52.066,82.336C52.776,79.62 53.131,76.842 53.131,74.002C53.131,71.245 52.776,68.488 52.066,65.73C51.356,62.973 50.249,60.53 48.745,58.399C47.241,56.269 45.32,54.535 42.98,53.198C40.641,51.862 37.884,51.193 34.709,51.193Z" style="fill:#fff" transform="translate(0 5.115)scale(5.46667)"/><path d="M34.709,37.914C40.181,37.914 45.055,38.832 49.336,40.641C53.659,42.469 57.311,44.992 60.298,48.201C63.28,51.406 65.555,55.23 67.113,59.681C68.646,64.061 69.418,68.834 69.418,74.002C69.418,79.255 68.645,84.07 67.113,88.448C65.555,92.898 63.28,96.723 60.298,99.927C57.311,103.137 53.659,105.66 49.336,107.488C45.055,109.297 40.181,110.215 34.709,110.215C29.237,110.215 24.363,109.297 20.082,107.488C15.759,105.66 12.107,103.137 9.12,99.927C6.138,96.723 3.863,92.898 2.305,88.448C0.773,84.07 0,79.255 0,74.002C0,68.834 0.773,64.061 2.305,59.681C3.863,55.23 6.138,51.406 9.12,48.201C12.107,44.992 15.759,42.469 20.082,40.641C24.363,38.832 29.237,37.914 34.709,37.914ZM34.709,41.914C29.821,41.914 25.463,42.709 21.64,44.325C17.859,45.923 14.66,48.12 12.049,50.926C9.433,53.737 7.447,57.098 6.081,61.002C4.69,64.977 4,69.311 4,74.002C4,78.774 4.689,83.15 6.081,87.126C7.447,91.031 9.433,94.391 12.049,97.202C14.66,100.008 17.859,102.205 21.64,103.803C25.463,105.419 29.821,106.215 34.709,106.215C39.597,106.215 43.955,105.419 47.778,103.803C51.559,102.205 54.758,100.008 57.369,97.202C59.985,94.391 61.971,91.031 63.337,87.126C64.729,83.15 65.418,78.774 65.418,74.002C65.418,69.311 64.728,64.977 63.337,61.002C61.971,57.098 59.985,53.737 57.369,50.926C54.758,48.12 51.559,45.923 47.778,44.325C43.955,42.709 39.597,41.914 34.709,41.914ZM34.709,49.193C38.267,49.193 41.351,49.964 43.973,51.462C46.573,52.948 48.707,54.877 50.379,57.246C52.018,59.567 53.229,62.227 54.003,65.232C54.756,68.155 55.131,71.078 55.131,74.002C55.131,77.015 54.754,79.961 54.001,82.842C53.229,85.792 52.023,88.445 50.389,90.805C48.715,93.224 46.577,95.179 43.973,96.667C41.351,98.165 38.267,98.936 34.709,98.936C31.151,98.936 28.067,98.165 25.445,96.667C22.841,95.179 20.703,93.224 19.029,90.805C17.395,88.445 16.189,85.792 15.417,82.842C14.664,79.961 14.287,77.015 14.287,74.002C14.287,71.078 14.662,68.155 15.415,65.232C16.189,62.227 17.4,59.567 19.039,57.246C20.711,54.877 22.845,52.948 25.445,51.462C28.067,49.964 31.151,49.193 34.709,49.193ZM34.709,53.193C31.917,53.193 29.487,53.759 27.43,54.935C25.352,56.122 23.643,57.66 22.307,59.553C20.938,61.492 19.935,63.719 19.289,66.229C18.621,68.82 18.287,71.411 18.287,74.002C18.287,76.67 18.62,79.279 19.287,81.83C19.936,84.31 20.944,86.544 22.317,88.529C23.651,90.455 25.356,92.009 27.43,93.194C29.487,94.37 31.917,94.936 34.709,94.936C37.501,94.936 39.931,94.37 41.988,93.194C44.062,92.009 45.767,90.455 47.101,88.529C48.475,86.544 49.482,84.31 50.131,81.83C50.798,79.279 51.131,76.67 51.131,74.002C51.131,71.411 50.797,68.82 50.129,66.229C49.483,63.719 48.48,61.492 47.111,59.553C45.775,57.66 44.066,56.122 41.988,54.935C39.931,53.759 37.501,53.193 34.709,53.193Z" transform="translate(0 5.115)scale(5.46667)"/><path d="M115.291,39.914C120.471,39.914 125.087,40.771 129.139,42.483C133.191,44.196 136.617,46.556 139.415,49.564C142.214,52.572 144.345,56.164 145.807,60.342C147.269,64.519 148,69.072 148,74.002C148,79.015 147.269,83.61 145.807,87.787C144.345,91.965 142.214,95.557 139.415,98.565C136.617,101.573 133.191,103.933 129.139,105.645C125.087,107.358 120.471,108.215 115.291,108.215C110.111,108.215 105.495,107.358 101.443,105.645C97.391,103.933 93.965,101.573 91.167,98.565C88.368,95.557 86.237,91.965 84.775,87.787C83.313,83.61 82.582,79.015 82.582,74.002C82.582,69.072 83.313,64.519 84.775,60.342C86.237,56.164 88.368,52.572 91.167,49.564C93.965,46.556 97.391,44.196 101.443,42.483C105.495,40.771 110.111,39.914 115.291,39.914ZM115.291,51.193C112.116,51.193 109.359,51.862 107.02,53.198C104.68,54.535 102.759,56.269 101.255,58.399C99.751,60.53 98.644,62.973 97.934,65.73C97.224,68.488 96.869,71.245 96.869,74.002C96.869,76.842 97.224,79.62 97.934,82.336C98.644,85.051 99.751,87.495 101.255,89.667C102.759,91.839 104.68,93.594 107.02,94.93C109.359,96.267 112.116,96.936 115.291,96.936C118.466,96.936 121.223,96.267 123.562,94.93C125.902,93.594 127.823,91.839 129.327,89.667C130.831,87.495 131.938,85.051 132.648,82.336C133.358,79.62 133.713,76.842 133.713,74.002C133.713,71.245 133.358,68.488 132.648,65.73C131.938,62.973 130.831,60.53 129.327,58.399C127.823,56.269 125.902,54.535 123.562,53.198C121.223,51.862 118.466,51.193 115.291,51.193Z" style="fill:#fff" transform="translate(0 5.115)scale(5.46667)"/><path d="M115.291,37.914C120.763,37.914 125.637,38.832 129.918,40.641C134.241,42.469 137.893,44.992 140.88,48.201C143.862,51.406 146.137,55.23 147.695,59.681C149.227,64.061 150,68.834 150,74.002C150,79.255 149.227,84.07 147.695,88.448C146.137,92.898 143.862,96.723 140.88,99.927C137.893,103.137 134.241,105.66 129.918,107.488C125.637,109.297 120.763,110.215 115.291,110.215C109.819,110.215 104.945,109.297 100.664,107.488C96.341,105.66 92.689,103.137 89.702,99.927C86.72,96.723 84.445,92.898 82.887,88.448C81.355,84.07 80.582,79.255 80.582,74.002C80.582,68.834 81.354,64.061 82.887,59.681C84.445,55.23 86.72,51.406 89.702,48.201C92.689,44.992 96.341,42.469 100.664,40.641C104.945,38.832 109.819,37.914 115.291,37.914ZM115.291,41.914C110.403,41.914 106.045,42.709 102.222,44.325C98.441,45.923 95.242,48.12 92.631,50.926C90.015,53.737 88.029,57.098 86.663,61.002C85.272,64.977 84.582,69.311 84.582,74.002C84.582,78.774 85.271,83.15 86.663,87.126C88.029,91.031 90.015,94.391 92.631,97.202C95.242,100.008 98.441,102.205 102.222,103.803C106.045,105.419 110.403,106.215 115.291,106.215C120.179,106.215 124.537,105.419 128.36,103.803C132.141,102.205 135.34,100.008 137.951,97.202C140.567,94.391 142.553,91.031 143.919,87.126C145.311,83.15 146,78.774 146,74.002C146,69.311 145.31,64.977 143.919,61.002C142.553,57.098 140.567,53.737 137.951,50.926C135.34,48.12 132.141,45.923 128.36,44.325C124.537,42.709 120.179,41.914 115.291,41.914ZM115.291,49.193C118.849,49.193 121.933,49.964 124.555,51.462C127.155,52.948 129.289,54.877 130.961,57.246C132.6,59.567 133.811,62.227 134.585,65.232C135.338,68.155 135.713,71.078 135.713,74.002C135.713,77.015 135.336,79.961 134.583,82.842C133.811,85.792 132.605,88.445 130.971,90.805C129.297,93.224 127.159,95.179 124.555,96.667C121.933,98.165 118.849,98.936 115.291,98.936C111.733,98.936 108.649,98.165 106.027,96.667C103.423,95.179 101.285,93.224 99.611,90.805C97.977,88.445 96.771,85.792 95.999,82.842C95.246,79.961 94.869,77.015 94.869,74.002C94.869,71.078 95.244,68.155 95.997,65.232C96.771,62.227 97.982,59.567 99.621,57.246C101.293,54.877 103.427,52.948 106.027,51.462C108.649,49.964 111.733,49.193 115.291,49.193ZM115.291,53.193C112.499,53.193 110.069,53.759 108.012,54.935C105.934,56.122 104.225,57.66 102.889,59.553C101.52,61.492 100.517,63.719 99.871,66.229C99.203,68.82 98.869,71.411 98.869,74.002C98.869,76.67 99.202,79.279 99.869,81.83C100.518,84.31 101.525,86.544 102.899,88.529C104.233,90.455 105.938,92.009 108.012,93.194C110.069,94.37 112.499,94.936 115.291,94.936C118.083,94.936 120.513,94.37 122.57,93.194C124.644,92.009 126.349,90.455 127.683,88.529C129.056,86.544 130.064,84.31 130.713,81.83C131.38,79.279 131.713,76.67 131.713,74.002C131.713,71.411 131.379,68.82 130.711,66.229C130.065,63.719 129.062,61.492 127.693,59.553C126.357,57.66 124.648,56.122 122.57,54.935C120.513,53.759 118.083,53.193 115.291,53.193Z" transform="translate(0 5.115)scale(5.46667)"/></svg>