<svg xmlns="http://www.w3.org/2000/svg" width="100" height="100" preserveAspectRatio="xMadYMid meet" viewBox="0 0 70 100"><path fill="#505050" d="M35,10 C48.457,10 59.371,20.909 59.371,34.371 C59.371,47.832 35,82 35,82 C35,82 10.629,47.832 10.629,34.371 C10.629,20.909 21.542,10 35,10 Z M35,0 C16.048,0 0.629,15.418 0.629,34.371 C0.629,39.165 2.038,47.903 14.224,68.353 C20.456,78.81 26.6,87.444 26.859,87.807 L35,99.221 L43.142,87.807 C43.4,87.445 49.544,78.81 55.777,68.353 C67.963,47.903 69.372,39.165 69.372,34.371 C69.371,15.418 53.952,0 35,0 Z"/><path fill="#505050" d="M45,34 C45,39.527 40.534,44 35,44 C29.473,44 25,39.527 25,34 C25,28.469 29.473,24 35,24 C40.534,24 45,28.469 45,34 Z"/></svg>