<svg xmlns="http://www.w3.org/2000/svg" xml:space="preserve" style="fill-rule:evenodd;clip-rule:evenodd;stroke-linejoin:round;stroke-miterlimit:2" viewBox="0 0 112 108"><path d="M-66.352,456.642C-70.482,452.512 -66.014,446.838 -53.89,440.813L-46.261,437.022L-43.289,430.519C-41.655,426.943 -39.215,421.107 -37.868,417.551L-35.418,411.086L-37.106,406.301C-39.182,400.418 -39.922,391.577 -38.605,388.398C-36.821,384.092 -30.979,384.534 -28.666,389.15C-26.86,392.755 -27.044,399.283 -29.186,407.517L-30.941,414.267L-29.395,416.892C-28.544,418.335 -26.06,421.763 -23.874,424.509L-19.766,429.62L-14.654,428.952C1.585,426.833 7.148,430.435 7.148,435.599C7.148,442.116 -5.604,442.654 -16.312,435.133C-18.722,433.441 -20.376,431.76 -20.376,431.76C-20.376,431.76 -27.084,433.126 -30.387,434.016C-33.797,434.935 -35.497,435.511 -40.491,437.196C-40.491,437.196 -42.244,439.741 -43.385,441.591C-47.633,448.473 -52.593,454.176 -56.135,456.252C-60.101,458.576 -64.259,458.735 -66.352,456.642ZM-59.872,454.327C-57.551,452.892 -52.853,447.336 -49.601,442.179L-48.285,440.091L-54.28,443.105C-63.539,447.761 -67.775,452.148 -65.573,454.803C-64.335,456.294 -62.855,456.17 -59.872,454.327ZM0.273,437.444C2.544,435.854 2.214,432.649 -0.352,431.357C-2.35,430.352 -3.96,430.145 -9.149,430.222C-12.338,430.439 -17.465,431.082 -18.334,431.278C-18.334,431.278 -15.517,433.224 -14.267,433.94C-12.602,434.891 -8.556,436.656 -5.602,437.56C-2.689,438.452 -1.004,438.358 0.273,437.444L0.273,437.444ZM-23.91,427.393C-25.284,425.948 -27.621,422.934 -29.102,420.694C-31.04,418.153 -32.011,416.36 -32.011,416.36C-32.011,416.36 -33.427,420.915 -34.589,423.656L-38.214,432.616L-39.265,434.648C-39.265,434.648 -33.678,432.816 -30.835,432.074C-27.824,431.287 -21.714,430.086 -21.714,430.086L-23.91,427.393ZM-31.704,396.139C-31.353,393.198 -31.205,390.261 -32.15,388.78C-34.771,385.915 -37.934,388.304 -37.398,395.116C-37.218,397.408 -36.648,401.325 -35.887,403.739L-34.504,408.129L-33.53,404.823C-32.994,403.004 -32.172,399.096 -31.704,396.139Z" style="fill:#ff2116;fill-rule:nonzero" transform="translate(100.715 -572.069)scale(1.4843)"/></svg>