<svg xmlns="http://www.w3.org/2000/svg" preserveAspectRatio="xMinYMin meet" viewBox="0 0 305 400"><path fill="#ccc" d="M189.097848,272.696517 C203.833771,257.491227 212.100864,232.382956 215.300336,201.650069 C219.881733,153.643667 190.467552,114 150.304036,114 C110.1405,114 80.0896902,155.025678 85.3075773,202.93749 C89.1290684,235.540992 97.4822909,260.176277 112.469372,274.481589 C114.472017,284.973964 115.3597,301.192099 105.739225,309.529814 C88.7554349,324.248839 80.4897771,328.924458 60.3157884,333.905112 C4.79693993,347.611715 9.01299763,377.344726 0,399.746412 L305,400 C294.54746,376.278285 299.680252,346.861885 244.511331,335.103813 C219.629303,329.800762 213.692719,325.13629 194.240602,309.289945 C182.746085,299.926218 185.405339,281.245102 189.097848,272.696517 Z"/></svg>