<svg xmlns="http://www.w3.org/2000/svg" viewBox="0 0 404 404"><g id="icon-elements" fill="#F3F5F8" fill-rule="nonzero" stroke="#43536D" stroke-width="20" transform="translate(10 10)"><path id="Shape" d="M237.75,304 L237.75,384 L157.75,384 L157.75,304 L237.75,304 Z M80,304 L80,384 L0,384 L0,304 L80,304 Z M384,304 L384,384 L304,384 L304,304 L384,304 Z M237.75,152 L237.75,232 L157.75,232 L157.75,152 L237.75,152 Z M80,152 L80,232 L0,232 L0,152 L80,152 Z M384,152 L384,232 L304,232 L304,152 L384,152 Z M237.75,0 L237.75,80 L157.75,80 L157.75,0 L237.75,0 Z M80,0 L80,80 L0,80 L0,0 L80,0 Z M384,0 L384,80 L304,80 L304,0 L384,0 Z"/></g></svg>