<svg xmlns="http://www.w3.org/2000/svg" viewBox="0 0 384 384"><path fill="#43536D" d="M56,112 C25,112 0,87 0,56 C0,25 25,0 56,0 C87,0 112,25 112,56 C112,87 87,112 56,112 Z M56,16 C34,16 16,34 16,56 C16,78 34,96 56,96 C78,96 96,78 96,56 C96,34 78,16 56,16 Z M0,256 L0,176 C48,176 94,162 128,128 C162,94 176,48 176,0 L256,0 C256,140 140,256 0,256 Z M240,16 L192,16 C188,66 171,108 139,139 C108,171 66,188 16,192 L16,239 C42,238 68,231 93,221 C121,209 147,191 169,169 C191,147 209,121 221,93 C232,68 238,42 240,16 Z M0,384 L0,304 C171,304 304,171 304,0 L384,0 C384,212 212,384 0,384 Z M227,227 C171,284 97,316 16,320 L16,368 C206,359 360,206 368,16 L320,16 C316,97 283,171 227,227 Z" transform="matrix(1 0 0 -1 0 384)"/></svg>