<svg viewBox="0 0 23 23" xmlns="http://www.w3.org/2000/svg" preserveAspectRatio="xMinYMin meet">
    <g  transform="translate(0.875000, 0.722793)" fill="#43536D" fill-rule="nonzero">
        <path d="M13,13.9202074 C13,14.5092074 12.937,15.0992074 12.848,15.6792074 C12.714,16.6082074 12.58,17.5632074 12.357,18.4742074 C12.196,19.1262074 11.589,19.2782074 11,19.2782074 C10.411,19.2782074 9.804,19.1262074 9.643,18.4742074 C9.42,17.5632074 9.286,16.6082074 9.152,15.6792074 C9.063,15.0992074 9,14.5092074 9,13.9202074 C9,12.7152074 9.973,12.4202074 11,12.4202074 C12.027,12.4202074 13,12.7152074 13,13.9202074 Z M17.839,10.1342074 C17.839,13.0272074 16.053,15.5002074 13.518,16.5092074 C13.42,16.5452074 13.313,16.4552074 13.33,16.3482074 L13.419,15.7592074 L13.473,15.3392074 L13.553,15.2322074 C15.41,14.2862074 16.696,12.3572074 16.696,10.1342074 C16.696,6.87520738 13.964,4.25020738 10.669,4.42920738 C7.651,4.59020738 5.249,7.16120738 5.267,10.1792074 C5.285,12.4022074 6.58,14.3222074 8.446,15.2502074 L8.526,15.3572074 L8.58,15.7592074 L8.678,16.3662074 C8.696,16.4732074 8.58,16.5622074 8.482,16.5182074 C5.83,15.4822074 3.982,12.8392074 4.134,9.79520738 C4.304,6.34020738 7.089,3.50920738 10.545,3.29520738 C14.527,3.04520738 17.84,6.20620738 17.84,10.1342074 L17.839,10.1342074 Z M13,9.84820738 C13,10.9552074 12.107,11.8482074 11,11.8482074 C9.893,11.8482074 9,10.9552074 9,9.84820738 C9,8.74120738 9.893,7.84820738 11,7.84820738 C12.107,7.84820738 13,8.74120738 13,9.84820738 Z M20.5,0 C21.3284271,0 22,0.671572875 22,1.5 L22,1.5 L22,20.5 C22,21.3284271 21.3284271,22 20.5,22 L20.5,22 L1.5,22 C0.671572875,22 0,21.3284271 0,20.5 L0,20.5 L0,1.5 C0,0.671572875 0.671572875,0 1.5,0 L1.5,0 Z M20.5,1 L1.5,1 C1.22385763,1 1,1.22385763 1,1.5 L1,1.5 L1,20.5 C1,20.7761424 1.22385763,21 1.5,21 L1.5,21 L20.5,21 C20.7761424,21 21,20.7761424 21,20.5 L21,20.5 L21,1.5 C21,1.22385763 20.7761424,1 20.5,1 L20.5,1 Z M15.571,10.1342074 C15.571,11.6072074 14.866,12.9292074 13.785,13.7592074 C13.696,13.8302074 13.571,13.7682074 13.553,13.6522074 C13.526,13.4022074 13.455,13.1072074 13.294,12.8312074 C13.258,12.7772074 13.267,12.7062074 13.321,12.6522074 C14,12.0272074 14.428,11.1342074 14.428,10.1342074 C14.428,8.11620738 12.669,6.50020738 10.607,6.72320738 C9.027,6.90220738 7.741,8.20520738 7.589,9.79420738 C7.473,10.9192074 7.919,11.9552074 8.678,12.6512074 C8.732,12.7052074 8.741,12.7762074 8.705,12.8302074 C8.544,13.1072074 8.473,13.4012074 8.446,13.6602074 C8.428,13.7672074 8.303,13.8302074 8.214,13.7582074 C7.107,12.9012074 6.401,11.5532074 6.428,10.0352074 C6.482,7.66020738 8.41,5.67820738 10.776,5.57120738 C13.401,5.44620738 15.571,7.53520738 15.571,10.1342074 Z"></path>
    </g>
</svg>
